<?xml version="1.0" encoding="UTF-8"?>
<svg id="Layer_1" data-name="Layer 1" xmlns="http://www.w3.org/2000/svg" viewBox="0 0 2000 2000">
  <desc>Medical checkup of blood pressure and health examination.Vector concept illustration of a girl and doctor sitting checkup of blood pressure in the room Professional treatment. vector illustration</desc>
<metadata><?xpacket begin="﻿" id="W5M0MpCehiHzreSzNTczkc9d"?>
<x:xmpmeta xmlns:x="adobe:ns:meta/" x:xmptk="Adobe XMP Core 7.1-c000 79.4d2f597, 2021/09/01-20:51:22        ">
   <rdf:RDF xmlns:rdf="http://www.w3.org/1999/02/22-rdf-syntax-ns#">
      <rdf:Description rdf:about=""
            xmlns:xmp="http://ns.adobe.com/xap/1.0/"
            xmlns:xmpMM="http://ns.adobe.com/xap/1.0/mm/"
            xmlns:stEvt="http://ns.adobe.com/xap/1.0/sType/ResourceEvent#"
            xmlns:photoshop="http://ns.adobe.com/photoshop/1.0/"
            xmlns:xmpRights="http://ns.adobe.com/xap/1.0/rights/"
            xmlns:dc="http://purl.org/dc/elements/1.1/"
            xmlns:Iptc4xmpCore="http://iptc.org/std/Iptc4xmpCore/1.0/xmlns/">
         <xmp:MetadataDate>2024-07-19T13:45:23+07:00</xmp:MetadataDate>
         <xmpMM:InstanceID>xmp.iid:cf39fca4-2159-4049-a29a-bc77634a5b23</xmpMM:InstanceID>
         <xmpMM:DocumentID>xmp.did:27b80e22-63fa-de4f-8e3f-391327472468</xmpMM:DocumentID>
         <xmpMM:OriginalDocumentID>xmp.did:27b80e22-63fa-de4f-8e3f-391327472468</xmpMM:OriginalDocumentID>
         <xmpMM:History>
            <rdf:Seq>
               <rdf:li>
                  <rdf:Description>
                     <stEvt:action>saved</stEvt:action>
                     <stEvt:instanceID>xmp.iid:27b80e22-63fa-de4f-8e3f-391327472468</stEvt:instanceID>
                     <stEvt:when>2024-07-19T11:05:55+07:00</stEvt:when>
                     <stEvt:softwareAgent>Adobe Bridge 2023</stEvt:softwareAgent>
                     <stEvt:changed>/metadata</stEvt:changed>
                  </rdf:Description>
               </rdf:li>
               <rdf:li>
                  <rdf:Description>
                     <stEvt:action>saved</stEvt:action>
                     <stEvt:instanceID>xmp.iid:cf39fca4-2159-4049-a29a-bc77634a5b23</stEvt:instanceID>
                     <stEvt:when>2024-07-19T13:45:23+07:00</stEvt:when>
                     <stEvt:softwareAgent>Adobe Bridge 2023</stEvt:softwareAgent>
                     <stEvt:changed>/metadata</stEvt:changed>
                  </rdf:Description>
               </rdf:li>
            </rdf:Seq>
         </xmpMM:History>
         <photoshop:AuthorsPosition>Motion design</photoshop:AuthorsPosition>
         <xmpRights:Marked>True</xmpRights:Marked>
         <dc:creator>
            <rdf:Seq>
               <rdf:li>Muhammad Noor Ridho</rdf:li>
            </rdf:Seq>
         </dc:creator>
         <dc:description>
            <rdf:Alt>
               <rdf:li xml:lang="x-default">Medical checkup of blood pressure and health examination.Vector concept illustration of a girl and doctor sitting checkup of blood pressure in the room Professional treatment. vector illustration</rdf:li>
            </rdf:Alt>
         </dc:description>
         <dc:subject>
            <rdf:Bag>
               <rdf:li>advice</rdf:li>
               <rdf:li>blood</rdf:li>
               <rdf:li>blood pressure</rdf:li>
               <rdf:li>care</rdf:li>
               <rdf:li>cartoon</rdf:li>
               <rdf:li>character</rdf:li>
               <rdf:li>checking</rdf:li>
               <rdf:li>checkup</rdf:li>
               <rdf:li>clinic</rdf:li>
               <rdf:li>clinicians</rdf:li>
               <rdf:li>concept</rdf:li>
               <rdf:li>consultation</rdf:li>
               <rdf:li>diagnose</rdf:li>
               <rdf:li>diagnosis</rdf:li>
               <rdf:li>diagnostic</rdf:li>
               <rdf:li>diagnostics</rdf:li>
               <rdf:li>disease</rdf:li>
               <rdf:li>doctor</rdf:li>
               <rdf:li>elderly</rdf:li>
               <rdf:li>equipment</rdf:li>
               <rdf:li>exam</rdf:li>
               <rdf:li>female</rdf:li>
               <rdf:li>health</rdf:li>
               <rdf:li>high</rdf:li>
               <rdf:li>hospital</rdf:li>
               <rdf:li>hypertension</rdf:li>
               <rdf:li>hypotension</rdf:li>
               <rdf:li>ill</rdf:li>
               <rdf:li>illness</rdf:li>
               <rdf:li>illustration</rdf:li>
               <rdf:li>instrument</rdf:li>
               <rdf:li>measure</rdf:li>
               <rdf:li>measurement</rdf:li>
               <rdf:li>medical</rdf:li>
               <rdf:li>medicare</rdf:li>
               <rdf:li>medicine</rdf:li>
               <rdf:li>nurse</rdf:li>
               <rdf:li>patient</rdf:li>
               <rdf:li>physician</rdf:li>
               <rdf:li>pressure</rdf:li>
               <rdf:li>professional</rdf:li>
               <rdf:li>pulse</rdf:li>
               <rdf:li>sick</rdf:li>
               <rdf:li>sit</rdf:li>
               <rdf:li>stethoscope</rdf:li>
               <rdf:li>table</rdf:li>
               <rdf:li>test</rdf:li>
               <rdf:li>tonometer</rdf:li>
               <rdf:li>treatment</rdf:li>
               <rdf:li>woman</rdf:li>
            </rdf:Bag>
         </dc:subject>
         <Iptc4xmpCore:CreatorContactInfo>
            <rdf:Description>
               <Iptc4xmpCore:CiAdrCtry>Indonesia</Iptc4xmpCore:CiAdrCtry>
               <Iptc4xmpCore:CiAdrExtadr>Garung kidul rt05rw02</Iptc4xmpCore:CiAdrExtadr>
               <Iptc4xmpCore:CiAdrRegion>jawa tengah</Iptc4xmpCore:CiAdrRegion>
               <Iptc4xmpCore:CiEmailWork>muhammadnoorridho@gmail.com</Iptc4xmpCore:CiEmailWork>
               <Iptc4xmpCore:CiAdrCity>kudus</Iptc4xmpCore:CiAdrCity>
               <Iptc4xmpCore:CiTelWork>+6289670118696</Iptc4xmpCore:CiTelWork>
            </rdf:Description>
         </Iptc4xmpCore:CreatorContactInfo>
      </rdf:Description>
   </rdf:RDF>
</x:xmpmeta>
                                                                                                    
                                                                                                    
                                                                                                    
                                                                                                    
                                                                                                    
                                                                                                    
                                                                                                    
                                                                                                    
                                                                                                    
                                                                                                    
                                                                                                    
                                                                                                    
                                                                                                    
                                                                                                    
                                                                                                    
                                                                                                    
                                                                                                    
                                                                                                    
                                                                                                    
                                                                                                    
                           
<?xpacket end="w"?></metadata>
<defs>
    <style>
      .cls-1, .cls-2, .cls-3, .cls-4, .cls-5, .cls-6, .cls-7, .cls-8, .cls-9, .cls-10, .cls-11 {
        fill: none;
        stroke-miterlimit: 10;
      }

      .cls-1, .cls-3, .cls-5, .cls-6, .cls-7, .cls-9, .cls-10 {
        stroke-linecap: round;
      }

      .cls-1, .cls-4, .cls-11 {
        stroke: #525887;
      }

      .cls-1, .cls-6, .cls-10 {
        stroke-width: 5.34px;
      }

      .cls-12 {
        fill: #47a5b0;
      }

      .cls-13 {
        fill: #f4dd7a;
      }

      .cls-14 {
        fill: #231c1c;
      }

      .cls-2 {
        stroke: #ed9b97;
        stroke-width: 5.18px;
      }

      .cls-15 {
        fill: #5541d5;
      }

      .cls-16 {
        fill: #ed9b97;
      }

      .cls-17 {
        fill: #f2ca79;
      }

      .cls-3 {
        stroke-width: 1.78px;
      }

      .cls-3, .cls-6, .cls-9 {
        stroke: #231c1c;
      }

      .cls-4 {
        stroke-width: 2.37px;
      }

      .cls-5 {
        stroke: #f2a50a;
        stroke-width: 9.99px;
      }

      .cls-18 {
        fill: #f9f7f7;
      }

      .cls-19 {
        fill: #eef4f5;
      }

      .cls-20 {
        fill: #44828a;
      }

      .cls-7 {
        stroke: #f2ca79;
        stroke-width: 9.99px;
      }

      .cls-21 {
        fill: #eaeaea;
      }

      .cls-22 {
        fill: #525887;
      }

      .cls-23 {
        fill: #ddd3c7;
      }

      .cls-8 {
        stroke: #eef4f5;
        stroke-width: 2.48px;
      }

      .cls-9 {
        stroke-width: 3.22px;
      }

      .cls-10 {
        stroke: #56c7d4;
      }

      .cls-24 {
        fill: #cc7d74;
      }

      .cls-11 {
        stroke-width: 5.88px;
      }
    </style>
  </defs>
  <path class="cls-19" d="m1835.55,1432.96c1.91-42.34,20.49-63.94,8.5-114.73-6.69-28.34-22.09-36.34-46.42-56.46-47.85-39.56-105.72-59.24-116.78-125.42-12.56-75.15,18.38-152.14,38.05-223,15.45-55.67,32.76-110.78,47.42-166.69,17.38-66.27,31.34-135.88-6.48-197.73-49.54-81.02-149.28-95.48-232.38-70.45-82.04,24.71-145.19,85.74-218.9,127.48-62.27,35.27-141.18,54.42-177.07-27.17-87.41-198.72-166.88-295.32-320.52-251.17-153.63,44.17-182.77,248.41-222.5,430.58-21.14,96.93-118.53,119.52-195.59,150.81-99.83,40.54-175.18,117.59-185.97,233.87-1.85,19.93-1.93,39.56-.35,58.8,3.43,41.82-8.57,83.29-33.07,117.36s-37.69,73.8-37.69,118.02c0,108.33,174.22,229.87,401.23,238.5,143.02,5.44,265.55-60.45,446.54-60.45,284.18,0,550.01,96.86,712.23,59.01,110.24-25.72,168.39-55.42,168.39-126.03,0-22.31-29.74-90.82-28.65-115.16Z"/>
  <g>
    <path class="cls-15" d="m1310.51,1026.9v133.96c0,8,5.97,14.48,13.32,14.48h0c7.36,0,13.32-6.48,13.32-14.48v-133.96c0-8.52-6.73-15.19-14.53-14.42h0c-6.86.68-12.12,6.93-12.12,14.42Z"/>
    <g>
      <path class="cls-24" d="m1432.37,989.72h-173.41l-25.22,61.68,23,.54,10.66-27.21h165.94s26.65,1.58,26.65-17.9-27.62-17.11-27.62-17.11Z"/>
      <polygon class="cls-22" points="1236.06 989.72 1212.15 1050.89 1233.74 1051.4 1258.96 989.72 1236.06 989.72"/>
    </g>
    <rect class="cls-22" x="1292.59" y="1168.5" width="374.04" height="48.45" rx="8.95" ry="8.95"/>
    <rect class="cls-24" x="1468.63" y="1238.71" width="20.35" height="159.03"/>
    <rect class="cls-22" x="1438.77" y="1168.5" width="81.68" height="76.88" rx="6.17" ry="6.17"/>
    <path class="cls-11" d="m1456.35,1231.69s-44.09,42.13-49.9,43.18"/>
    <ellipse class="cls-22" cx="1398.61" cy="1274.52" rx="12.84" ry="7.2"/>
    <path class="cls-22" d="m1461.36,1331.89h35.21v158.93c0,2.63-2.13,4.76-4.76,4.76h-25.69c-2.63,0-4.76-2.13-4.76-4.76v-158.93h0Z"/>
    <path class="cls-22" d="m1468.54,1403.67s-18.65,22.83-67.43,41.82c-48.77,18.99-64.32,31.92-63.71,47.51.61,15.59,20.47,1.6,20.47,1.6,0,0,64.88-47.47,118.5-52.38l-7.83-38.55Z"/>
    <path class="cls-22" d="m1491.32,1403.67s18.65,22.83,67.43,41.82c48.77,18.99,64.32,31.92,63.71,47.51-.61,15.59-20.47,1.6-20.47,1.6,0,0-64.88-47.47-118.5-52.38l7.83-38.55Z"/>
    <polygon class="cls-22" points="1343.95 1494.29 1343.95 1505.53 1351.05 1505.53 1351.05 1493.45 1343.95 1494.29"/>
    <polygon class="cls-22" points="1610.42 1494.29 1610.42 1505.53 1617.53 1505.53 1617.53 1493.45 1610.42 1494.29"/>
    <polygon class="cls-22" points="1473.59 1494.29 1473.59 1505.53 1484.33 1505.53 1484.33 1493.45 1473.59 1494.29"/>
    <ellipse class="cls-22" cx="1346.72" cy="1528.18" rx="23.61" ry="24.86"/>
    <ellipse class="cls-21" cx="1349.31" cy="1529.53" rx="15.27" ry="16.08"/>
    <ellipse class="cls-22" cx="1613.98" cy="1528.18" rx="23.61" ry="24.86"/>
    <ellipse class="cls-21" cx="1611.39" cy="1529.53" rx="15.27" ry="16.08"/>
    <ellipse class="cls-22" cx="1480.01" cy="1528.18" rx="20.11" ry="24.86"/>
  </g>
  <g>
    <g>
      <g>
        <path class="cls-13" d="m1679.76,727.21c7.65-38.48,20.61-60.63,35.1-72.82-.41-.05-.73-.17-1.15-.2h-228.08s-88.83-8.08-88.83,272.07,8.72,261.19,8.72,261.19l273.77.23c-34.06-108.98-20.11-356.96.46-460.48Z"/>
        <path class="cls-17" d="m1723.36,1072.66c-20.58-63.35-5.99-195.35,1.28-255.93,2.12-17.64,6.14-34.95,12.45-51.36,13.37-34.82,32.95-104.79-22.23-110.97-14.5,12.19-27.45,34.33-35.1,72.82-20.57,103.52-34.52,351.5-.46,460.48l40.7-4.29s36.1-9.98,3.36-110.74Z"/>
      </g>
      <line class="cls-7" x1="1441.38" y1="763.1" x2="1658.69" y2="763.1"/>
      <line class="cls-7" x1="1428.46" y1="843.85" x2="1643.58" y2="843.85"/>
      <line class="cls-7" x1="1415.54" y1="923.19" x2="1631.31" y2="923.19"/>
      <line class="cls-5" x1="1410.37" y1="1005.34" x2="1618.71" y2="1005.34"/>
    </g>
    <rect class="cls-17" x="1250.48" y="1120.05" width="485.48" height="67.67" rx="12.5" ry="12.5"/>
    <rect class="cls-13" x="1250.48" y="1120.05" width="321.49" height="67.67" rx="12.5" ry="12.5"/>
  </g>
  <path class="cls-16" d="m1169.24,1389.52s3.67,34.56,1.71,51.13c-1.95,16.57-38.74,22.77-53.04,35.57-14.29,12.8,97.79,6.78,104.19,3.06,6.39-3.72-6.82-62.97-5.69-90.9l-47.18,1.13Z"/>
  <path class="cls-14" d="m1166.71,1037c-26.07,1.41-45.03,24.37-43.44,52.55,1.04,18.4,2.24,36.7,3.27,44.73,2.42,18.91,33.99,269.35,33.99,269.35,0,0,42.12,11.59,65.74-3.13,0,0,9.5-111.31,5.48-184.89-2.25-41.2-5.86-88.98-8.75-125.39-2.43-30.54-28.04-54.74-56.29-53.22h0Z"/>
  <path class="cls-14" d="m1524.82,1104.24c-23.8-11.34-51.09-5.82-93.59-7.16-11.01-.34-42.14.24-53.19.29-54.4.27-89.78,15.62-109.45,17.37-39.07,3.5-49.19,10.68-76.07,14.71-26.85,4.02-58.51.6-67.43-35.69-8.9-36.33,29.53-57.21,46.66-62.66,7.72-2.47,35.45-9.88,65.56-17.87,36.84-9.83,87.31-21.23,98.82-23.5,21.85-4.32,93.34-13.48,131.48-16.64,10.84-.9,17.65-1.43,17.65-1.43l39.57,132.59Z"/>
  <path class="cls-16" d="m1263.48,1402.56s6.06,37.63,5.41,55.95c-.66,18.32-35.53,27.91-48.32,43.04-12.78,15.12,94.42.02,100.29-4.55,5.87-4.57-11.18-68.55-12.15-99.26l-45.23,4.82Z"/>
  <path class="cls-14" d="m1215.86,1120.26s30.13,195.15,31.61,298.17c0,0,45.94,20.28,74.83,2.02,0,0-.71-79.01,2.47-133.95,2.89-50.08-2.21-142.25-7.39-166.86-.65-3.08-.98-6.18-1.07-9.24-.75-25.4-17.1-48.05-40.13-53.54l-2.81-.67c-30.18-7.2-57.88,15.74-58.57,48.91-.12,5.94.16,11.22,1.07,15.17Z"/>
  <path class="cls-14" d="m1301.34,1055.07c174.66-65.4,254.81-87.37,254.81-87.37l71.32,88.57c-4.68,52.64-8.3,72.13-84.7,77.38-114.38,7.85-139.16,3.62-196.1,4.9,0,0-74.07,3.64-73.98-37.46.06-28.3,28.65-46,28.65-46Z"/>
  <path class="cls-14" d="m1627.12,1059.22s-73.92-.67-132.33-4.35c-58.41-3.68-100.79-17.91-100.79-17.91,11.83-27.29,26.65-55.73,32.86-82.06.98-4.21,2.09-9.32,3.6-13l10.36-25.26,177.26-.78c.87,31.73,3.93,17.88,7.77,58.31,3.88,40.93,1.26,85.05,1.26,85.05Z"/>
  <path class="cls-14" d="m1444.61,928.18s-60.78-44.05-13.43-60.03c47.35-15.97,131.78-23.75,122.65,30.01-9.13,53.76-109.22,30.01-109.22,30.01"/>
  <g>
    <path class="cls-24" d="m1076.75,1532.05s-3.75-52.93,68.03-79.94c0,0-8-33.56,22.33-33.82,30.34-.26,30.22,30.49,30.22,30.49,0,0,16.37-8.37,20.83-6.99,4.46,1.38,3.38-1.76,13.38,67.77l.72,15.01-155.51,7.48Z"/>
    <path class="cls-22" d="m1076.75,1532.05l155.51-7.48-.72-15.01c-.14-1-.28-1.94-.42-2.91l-151.79,7.31c-3.1,10.69-2.58,18.09-2.58,18.09Z"/>
    <path class="cls-19" d="m1115.49,1467.15c15.59-3.66,31.88,1.66,42.49,13.57,1.27,1.42,3.24-.78,1.99-2.19-9.81-11.02-24.24-16.5-38.68-15.25-2.13,1.27-4.12,2.57-6.05,3.88.09,0,.16.01.26,0Z"/>
    <path class="cls-19" d="m1168.96,1470.43c1.35,1.35,3.33-.85,1.99-2.19-9.04-9.03-21.28-12.23-33.65-13.08-2.03.88-4,1.78-5.89,2.7,13.57.21,27.61,2.63,37.56,12.57Z"/>
    <path class="cls-19" d="m1144.02,1446.95c.1,1.13.23,2.13.36,2.94,13.77-1,27.54,4.61,36.67,15.07,1.25,1.43,3.23-.77,1.99-2.19-9.62-11.03-24.47-16.97-39.01-15.81Z"/>
  </g>
  <g>
    <path class="cls-24" d="m1176.48,1562.44s-4.86-52.84,66.33-81.36c0,0-8.71-33.38,21.61-34.28,30.32-.9,30.86,29.85,30.86,29.85,0,0,16.19-8.72,20.68-7.43,4.49,1.29,3.34-1.83,14.81,67.48l1.04,14.99-155.32,10.76Z"/>
    <path class="cls-22" d="m1176.48,1562.44l155.32-10.76-1.04-14.99c-.17-1-.32-1.93-.48-2.9l-151.6,10.51c-2.87,10.75-2.2,18.14-2.2,18.14Z"/>
    <path class="cls-19" d="m1213.84,1496.73c15.5-3.99,31.91.98,42.77,12.68,1.3,1.4,3.23-.85,1.94-2.23-10.04-10.81-24.59-15.98-39-14.43-2.1,1.31-4.07,2.65-5.97,4,.09,0,.16,0,.25-.01Z"/>
    <path class="cls-19" d="m1267.37,1498.89c1.38,1.32,3.31-.92,1.94-2.23-9.22-8.84-21.54-11.77-33.92-12.37-2.01.92-3.96,1.86-5.83,2.82,13.57-.07,27.66,2.04,37.81,11.78Z"/>
    <path class="cls-19" d="m1241.93,1475.94c.13,1.13.28,2.13.42,2.93,13.75-1.29,27.63,4.03,36.98,14.29,1.28,1.41,3.21-.84,1.94-2.23-9.85-10.82-24.82-16.45-39.34-14.99Z"/>
  </g>
  <path class="cls-14" d="m1565.62,479.9s-2.61,37.43-26.4,46.36c-23.8,8.94-77.68-49.06-44.87-105.96,32.81-56.89,80.73-9.4,71.27,59.59Z"/>
  <path class="cls-16" d="m1489.12,540.96s4.29,16.28.43,24.77c-10.01,22.06,28.67,44.01,61.5-2.61,0,0-8.08-21.75-8.06-56.51.02-34.76-41.13-21.72-41.13-21.72,0,0-25.9,11.73-12.75,56.07Z"/>
  <path class="cls-14" d="m1491,559.78s34.43.13,43.41-34.94l-44.29,17.47s.99,5.25.87,17.47Z"/>
  <path class="cls-19" d="m1494.34,583.12c34.06,15.41,56.72-19.99,56.72-19.99l38.84,14.9-32.97,274.64c-100.4,7.69-138.37-8.34-138.37-8.34,0,0,12.87-13.8,18.74-129.85s39.75-146.12,39.75-146.12l12.16-1.67s-4.06,12.26,5.13,16.42Z"/>
  <path class="cls-12" d="m1464.74,588.16s-26.29-28.71-60.64,15.67c-34.35,44.38-93.82,142.55-93.82,142.55,0,0,1.91,33.74,33.26,37.16,4.42.48,13.83-1.6,16.84-4.87,35.4-38.41,63.85-79.98,95.62-125,0,0,36.65-41.22,8.74-65.51Z"/>
  <path class="cls-12" d="m1477.04,568.36s-49.67,11.74-55.92,17.83c-4.8,4.67-6.88,4.67-15.19,94.02-9.43,101.39-10.91,268.47-20.47,301.66l50.74-1.94s17.89-103.85,32.3-223.64c8.7-72.31,8.62-180.73,8.54-187.93Z"/>
  <path class="cls-20" d="m1454.65,574.1s7.95,29.96,11.05,47.4l-22.25,4.64s25.31,66.17,27.37,107.97c0,0-17.8-75.66-33.45-111.55l20.95-5s-3.42-21.78-9.11-41.94l5.44-1.52Z"/>
  <g>
    <path class="cls-12" d="m1563.88,567.47s-52.37,97.53-93.06,166.64c-37.98,64.49-11.98,246.77-11.98,246.77,0,0,129.43,23.52,169.2,9.18l-3.6-394.28s-19.53-18.38-60.55-28.31Z"/>
    <polygon class="cls-20" points="1612.73 828.9 1627.55 936.86 1626.57 828.9 1612.73 828.9"/>
  </g>
  <path class="cls-20" d="m1582.53,572.99s-17.59,24.89-32.45,42.3l19.79,20.15s-67.97,55.58-99.04,98.67c0,0,67.02-68.13,107.95-97.91l-21.18-20.93s15.69-17.81,30.03-40.62l-5.1-1.66Z"/>
  <g>
    <path class="cls-20" d="m1513.84,722.18s36.41,5.22,68.03,0c0,0-28.15,16.42-68.03,0Z"/>
    <path class="cls-20" d="m1513.84,722.18l-2.92,41.74s8.91-26.19,2.92-41.74Z"/>
    <path class="cls-23" d="m1581.87,722.18l2.5,41.74s-7.61-19.02-2.5-41.74Z"/>
  </g>
  <path class="cls-24" d="m1609.95,1027.17v163.71c0,8,6.82,14.48,15.24,14.48h0c8.42,0,15.24-6.48,15.24-14.48v-163.71c0-8.61-7.86-15.32-16.87-14.4h0c-7.74.79-13.61,7-13.61,14.4Z"/>
  <g>
    <path class="cls-24" d="m1765.97,989.72h-198.36l-28.85,61.68,26.31.54,12.19-27.21h189.82s30.48,1.58,30.48-17.9-31.59-17.11-31.59-17.11Z"/>
    <polygon class="cls-22" points="1541.41 989.72 1514.06 1050.89 1538.75 1051.4 1567.61 989.72 1541.41 989.72"/>
  </g>
  <g>
    <path class="cls-24" d="m885.21,1026.07v133.96c0,8-5.97,14.48-13.32,14.48h0c-7.36,0-13.32-6.48-13.32-14.48v-133.96c0-8.52,6.73-15.19,14.53-14.42h0c6.86.68,12.12,6.93,12.12,14.42Z"/>
    <g>
      <path class="cls-24" d="m763.36,988.88h173.41s25.22,61.68,25.22,61.68l-23,.54-10.66-27.21h-165.94s-26.65,1.58-26.65-17.9c0-19.48,27.62-17.11,27.62-17.11Z"/>
      <polygon class="cls-22" points="959.66 988.88 983.57 1050.06 961.99 1050.57 936.77 988.88 959.66 988.88"/>
    </g>
    <rect class="cls-22" x="529.1" y="1167.66" width="374.04" height="48.45" rx="8.95" ry="8.95" transform="translate(1432.24 2383.77) rotate(180)"/>
    <rect class="cls-24" x="706.75" y="1237.88" width="20.35" height="159.03" transform="translate(1433.85 2634.78) rotate(-180)"/>
    <rect class="cls-22" x="675.28" y="1167.66" width="81.68" height="76.88" rx="6.17" ry="6.17" transform="translate(1432.24 2412.21) rotate(180)"/>
    <path class="cls-11" d="m739.37,1230.85s44.09,42.13,49.9,43.18"/>
    <ellipse class="cls-22" cx="797.11" cy="1273.68" rx="12.84" ry="7.2"/>
    <path class="cls-22" d="m703.92,1331.06h25.69c2.63,0,4.76,2.13,4.76,4.76v158.93h-35.21v-158.93c0-2.63,2.13-4.76,4.76-4.76Z" transform="translate(1433.53 2825.81) rotate(-180)"/>
    <path class="cls-22" d="m727.18,1402.84s18.65,22.83,67.43,41.82c48.77,18.99,64.32,31.92,63.71,47.51-.61,15.59-20.47,1.6-20.47,1.6,0,0-64.88-47.47-118.5-52.38l7.83-38.55Z"/>
    <path class="cls-22" d="m704.4,1402.84s-18.65,22.83-67.43,41.82c-48.77,18.99-64.32,31.92-63.71,47.51.61,15.59,20.47,1.6,20.47,1.6,0,0,64.88-47.47,118.5-52.38l-7.83-38.55Z"/>
    <polygon class="cls-22" points="851.78 1493.45 851.78 1504.69 844.67 1504.69 844.67 1492.62 851.78 1493.45"/>
    <polygon class="cls-22" points="585.3 1493.45 585.3 1504.69 578.2 1504.69 578.2 1492.62 585.3 1493.45"/>
    <polygon class="cls-22" points="722.13 1493.45 722.13 1504.69 711.39 1504.69 711.39 1492.62 722.13 1493.45"/>
    <ellipse class="cls-22" cx="849" cy="1527.34" rx="23.61" ry="24.86"/>
    <ellipse class="cls-21" cx="846.42" cy="1528.7" rx="15.27" ry="16.08"/>
    <path class="cls-22" d="m605.36,1527.34c0,13.73-10.57,24.86-23.61,24.86-13.04,0-23.61-11.13-23.61-24.86,0-13.73,10.57-24.86,23.61-24.86,13.04,0,23.61,11.13,23.61,24.86Z"/>
    <path class="cls-21" d="m599.6,1528.7c0,8.88-6.84,16.08-15.27,16.08-8.43,0-15.27-7.2-15.27-16.08,0-8.88,6.84-16.08,15.27-16.08,8.43,0,15.27,7.2,15.27,16.08Z"/>
    <ellipse class="cls-22" cx="715.71" cy="1527.34" rx="20.11" ry="24.86"/>
    <g>
      <g>
        <g>
          <path class="cls-13" d="m515.97,726.38c-7.65-38.48-20.61-60.63-35.1-72.82.41-.05.73-.17,1.15-.2h228.08s88.83-8.08,88.83,272.07c0,280.15-8.72,261.19-8.72,261.19l-273.77.23c34.06-108.98,20.11-356.96-.46-460.48Z"/>
          <path class="cls-17" d="m472.36,1071.82c20.58-63.35,5.99-195.35-1.28-255.93-2.12-17.64-6.14-34.95-12.45-51.36-13.37-34.82-32.95-104.79,22.23-110.97,14.5,12.19,27.45,34.33,35.1,72.82,20.57,103.52,34.52,351.5.46,460.48l-40.7-4.29s-36.1-9.98-3.36-110.74Z"/>
        </g>
        <line class="cls-7" x1="754.35" y1="762.27" x2="537.03" y2="762.27"/>
        <line class="cls-7" x1="767.27" y1="843.01" x2="552.15" y2="843.01"/>
        <line class="cls-7" x1="780.19" y1="922.35" x2="564.42" y2="922.35"/>
        <line class="cls-7" x1="785.36" y1="1004.5" x2="577.02" y2="1004.5"/>
      </g>
      <rect class="cls-17" x="459.77" y="1119.22" width="485.48" height="67.67" rx="12.5" ry="12.5" transform="translate(1405.01 2306.11) rotate(180)"/>
      <rect class="cls-13" x="623.75" y="1119.22" width="321.49" height="67.67" rx="12.5" ry="12.5" transform="translate(1568.99 2306.11) rotate(180)"/>
    </g>
  </g>
  <path class="cls-16" d="m987.43,1384.48s-8.12,33.79-8.34,50.48c-.21,16.69,35.46,27.61,47.97,42.15,12.51,14.55-97.85-5.97-103.7-10.48-5.86-4.52,14.93-61.55,17.44-89.39l46.63,7.25Z"/>
  <path class="cls-14" d="m1035.68,1035.27c25.66,4.78,41.49,30.01,36.25,57.74-3.42,18.11-6.98,36.1-9.04,43.92-4.85,18.43-68.66,262.66-68.66,262.66,0,0-43.27,6.03-64.78-11.64,0,0,5.02-111.6,18.56-184.03,7.58-40.56,17.35-87.47,24.95-123.19,6.37-29.96,34.91-50.64,62.72-45.47h0Z"/>
  <path class="cls-14" d="m670.91,1103.4c23.8-11.34,51.09-5.82,93.59-7.16,11.01-.34,42.14.24,53.19.29,54.4.27,89.78,15.62,109.45,17.37,39.07,3.5,49.19,10.68,76.07,14.71,26.85,4.02,58.51.6,67.43-35.69,8.9-36.33-29.53-57.21-46.66-62.66-7.72-2.47-35.45-9.88-65.56-17.87-36.84-9.83-87.31-21.23-98.82-23.5-21.85-4.32-93.34-13.48-131.48-16.64-10.84-.9-17.65-1.43-17.65-1.43l-39.57,132.59Z"/>
  <path class="cls-16" d="m904.72,1392.02s-9.61,36.88-10.7,55.18c-1.09,18.3,32.72,31.17,44.01,47.44,11.29,16.27-91.95-7.82-97.36-12.93-5.41-5.1,15.6-68.31,19.49-98.8l44.56,9.1Z"/>
  <path class="cls-14" d="m978.97,1115.53s-48.56,191.4-59.83,293.81c0,0-47.66,15.82-74.68-5.11,0,0,8.22-78.58,10.28-133.58,1.88-50.13,15.73-141.39,23.23-165.4.94-3,1.57-6.05,1.95-9.1,3.16-25.21,21.59-46.2,45.04-49.48l2.86-.4c30.72-4.3,56.12,21.18,53.65,54.26-.44,5.92-1.23,11.15-2.51,15Z"/>
  <path class="cls-14" d="m952.25,1049.17c-174.66-65.4-312.67-82.31-312.67-82.31l-71.32,88.57c4.68,52.64,8.3,72.13,84.7,77.38,114.38,7.85,139.16,3.62,196.1,4.9,0,0,137.86,12.95,137.77-28.15-.06-28.3-34.58-60.37-34.58-60.37Z"/>
  <path class="cls-14" d="m712.65,927.35s-142.53,41.42-130.91-11.86c17.79-81.56,74.08-105.23,116.81-79.31,36.34,22.05,56.34,79.62,56.34,79.62l-42.24,11.55Z"/>
  <path class="cls-14" d="m568.6,1058.38s73.92-.67,132.33-4.35c58.41-3.68,100.79-17.91,100.79-17.91-11.83-27.29-19.43-32.58-25.64-58.91-.98-4.21-9.31-32.46-10.82-36.15l-10.36-25.26-173.15-.31c-6.24,22.5-8.04,17.41-11.88,57.84-3.88,40.93-1.26,85.05-1.26,85.05Z"/>
  <g>
    <path class="cls-16" d="m773.23,684.67s41.12,96.89,29.46,112.36c-10.69,14.18-28.13,10.08-45.73-13.19-17.6-23.27-39.77-69.19-39.77-69.19,0,0,32.1-27.31,56.04-29.98Z"/>
    <path class="cls-12" d="m779.66,680.9s-25.6-89.85-71.29-71.89c-45.69,17.96,2.51,109.5,2.51,109.5,0,0,39.51-24.93,68.78-37.61Z"/>
  </g>
  <g>
    <path class="cls-22" d="m763.24,674.56l-44.42,17.48c-6.62,2.6-10.2,9.12-7.71,14.03l31.33,61.65c2.27,4.47,8.75,5.88,14.65,3.2l37.17-16.88c5.86-2.66,9.06-8.41,7.27-13.05l-24.08-62.25c-1.82-4.71-8.13-6.57-14.21-4.18Z"/>
    <path class="cls-24" d="m777.68,679.32l-32.7,13.1c-2.62,1.18-6.7,3.04-5.05,8.35,3.28,10.56,14.06,34.96,20.49,48.63,2.01,4.28,7.59,5.82,12.86,3.9,12.73-4.64,11.51-4.18,28.25-12.32l-23.85-61.66Z"/>
  </g>
  <g>
    <path class="cls-14" d="m701.39,518.33s-6.57,16.06-3.67,43.61c2.91,27.54-19.82,59.6-19.82,59.6,0,0-31.12,15.82-28.36,57.99s28.61,76.38-17.59,105.62c-46.2,29.24-63.79-15.56-49.72-40.29,14.06-24.73-17.69-74.09-2.32-109.36,15.37-35.26,38.03-48.59,32.35-89.69-5.68-41.1-5.51-110.74,47.63-131.61,68.14-26.77,88.64,34.87,88.64,34.87l-47.13,69.26Z"/>
    <path class="cls-14" d="m669.32,515.53s3.25,16.92-3.67,43.61c-6.92,26.68,6.74,61.92,6.74,61.92,0,0,26.22,20.83,17.11,61.97-9.1,41.14-37.29,70.62-1.21,107.05,36.08,36.43,58.67-4.85,50.19-31.55-8.48-26.7,27.31-70.16,19.35-107.46-7.96-37.3-25.83-54.17-14.32-93.77,11.51-39.59,29.13-105.3-21.15-137.63-56.48-36.32-82.76,29.45-82.76,29.45l29.71,66.42Z"/>
    <path class="cls-12" d="m647.72,772.17s10.57-18.19,36.02,2.88c29.13,24.13,73.02-179.8,6.9-180.34-66.12-.54-65.1,72.02-65.39,90.45s22.48,87.01,22.48,87.01Z"/>
  </g>
  <path class="cls-16" d="m706.6,567.92s-4.29,16.28-.43,24.77c10.01,22.06-28.67,44.01-61.5-2.61,0,0,8.08-21.75,8.06-56.51-.02-34.76,41.13-21.72,41.13-21.72,0,0,25.9,11.73,12.75,56.07Z"/>
  <path class="cls-14" d="m680.57,574.25s6.21,12.88,24.48,13.42c0,0-.76-11.87,1.39-16.19l-25.87-1.98v4.75Z"/>
  <path class="cls-12" d="m701.39,610.08c-34.06,15.41-56.72-19.99-56.72-19.99l-34.57,16.23c-19.81,9.3-44.42,34.45-44.42,56.34l15.4,234.93c95.48,3.33,179.03-5.6,179.03-5.6,0,0-16.23-47.41-5.55-147.83,5.9-55.5,7.01-87.05,3.73-105.41-2.53-14.14-11.81-26.16-24.79-32.31l-26.97-12.78s4.06,12.26-5.13,16.42Z"/>
  <path class="cls-14" d="m630.11,506.86s2.61,37.43,26.4,46.36,84.66-27.95,51.85-84.85c-32.81-56.89-87.7-30.51-78.25,38.48Z"/>
  <path class="cls-16" d="m646.48,535.09c1.74,16.51,10.61,23.62,19.2,31.49,8.58,7.87,29.4,12.25,44.54,12.24,15.14,0,29.2-14.44,37.38-29.16,5.05-9.09,6.54-42.05,6.94-65.94.25-14.81-2.62-26.09-2.62-26.09l-102.05-10.38,2.61,60.42s-2.82-17.73-20.35-17.39-12.61,30.1-3.03,38.53c9.58,8.43,17.39,6.26,17.39,6.26Z"/>
  <g>
    <ellipse class="cls-14" cx="737.49" cy="507.63" rx="6.77" ry="6.18" transform="translate(-38.22 60.58) rotate(-4.58)"/>
    <ellipse class="cls-18" cx="739.64" cy="509.34" rx="1.21" ry="1.37" transform="translate(218.44 1240.68) rotate(-89.08)"/>
  </g>
  <path class="cls-14" d="m729.87,492.97c-1.84-1.54-1.66-3.37.51-4.05,3.85-1.21,13.03-.39,15.26.27,2.93.86,7.14,6.58,4.66,6.52-2.48-.06-5.09-2.81-8.29-2.5-3.19.31-8.18,1.25-11.4.24-.47-.15-.53-.3-.74-.48Z"/>
  <path class="cls-9" d="m719.28,533.75c3.95-1.08,12.29-7.84,5.14-10.7-7.15-2.86-8.34-7.97-6.25-14.9"/>
  <path class="cls-9" d="m721.74,551.81s-16.29,5.24-26.76-4.45"/>
  <g>
    <ellipse class="cls-14" cx="696.66" cy="505.14" rx="6.77" ry="6.18" transform="translate(-38.15 57.31) rotate(-4.58)"/>
    <ellipse class="cls-18" cx="698.8" cy="506.86" rx="1.21" ry="1.37" transform="translate(180.75 1197.39) rotate(-89.08)"/>
  </g>
  <path class="cls-14" d="m704.8,491.48c2.09-1.12,2.29-2.94.32-4.03-3.51-1.93-12.59-2.94-14.88-2.75-3.01.25-8.25,4.97-5.83,5.4,2.42.43,5.51-1.72,8.55-.79,3.04.93,7.7,2.83,11.03,2.48.49-.05.57-.19.82-.32Z"/>
  <path class="cls-14" d="m706.49,464.37s-12.17,19.35-54.61,31.34l-22.01-16.65s1.26-60.61,63.17-56.26c58.01,4.08,66.17,42.23,61.38,63.81,0,0-23.63,5.66-47.92-22.24Z"/>
  <g>
    <path class="cls-12" d="m619.36,727.02s24.63-86.17-21.7-94.67c-46.32-8.5-53.39,90.49-53.39,90.49,0,0,44.82-.32,75.08,4.18Z"/>
    <path class="cls-16" d="m616.29,726.58s-16.83,99.84-35.23,106.61c-16.86,6.2-29.69-5.93-32.31-33.8-2.62-27.87,3.05-76.53,3.05-76.53,0,0,42.41-6.15,64.49,3.72Z"/>
  </g>
  <path class="cls-16" d="m691.37,951.49s-88.82-173.38-125.28-160.66c-36.46,12.72,8.81,64.75,8.81,64.75l93.55,110.21,22.91-14.3Z"/>
  <g>
    <path class="cls-16" d="m691.37,951.49s29.34,15.27,32.19,19.05c2.85,3.78,20.98,11.53,19.29,16.56-2.51,7.48-24.2-6.83-25.26-5.37-1.06,1.46,29.84,35.37,27.32,38.98-2.52,3.61-6.29,1.42-17.49-10.22,0,0,15.18,15.22,13.2,18.27-1.98,3.05-6.77,2.13-21.48-16.54,0,0,14.45,16.84,12.2,19.62-2.25,2.78-7.88-2.71-20.25-15.87,0,0,15.02,13.17,12.29,16.94-2.74,3.77-19.06-4.37-34.21-25.92-15.14-21.55-23.95-44.89-23.95-44.89l26.14-10.62Z"/>
    <path class="cls-3" d="m737.91,1021.25s-11.55-9.59-16.2-20.08"/>
    <path class="cls-3" d="m730.67,1026.12s-10.07-11.02-14-21.8"/>
    <path class="cls-3" d="m725.76,1031.98s-10.32-10.78-14.5-21.47"/>
  </g>
  <g>
    <path class="cls-24" d="m1056.99,1540.61s10.58-52-57.08-88.1c0,0,12.29-32.23-17.75-36.43-30.05-4.2-33.92,26.31-33.92,26.31,0,0-15.14-10.43-19.74-9.64-4.6.79-3.12-2.18-22.06,65.46l-2.66,14.79,153.22,27.6Z"/>
    <path class="cls-14" d="m1056.99,1540.61l-153.22-27.6,2.66-14.79c.27-.97.53-1.88.79-2.83l149.56,26.94c1.69,11,.21,18.28.21,18.28Z"/>
    <path class="cls-19" d="m1027.01,1471.23c-14.98-5.65-31.83-2.49-43.89,7.95-1.44,1.25-3.12-1.19-1.69-2.43,11.16-9.66,26.18-13.21,40.33-10.11,1.95,1.53,3.75,3.08,5.5,4.63-.08-.02-.16,0-.25-.04Z"/>
    <path class="cls-19" d="m973.56,1467.54c-1.51,1.16-3.2-1.27-1.69-2.43,10.13-7.78,22.69-9.36,35.07-8.61,1.9,1.14,3.73,2.28,5.49,3.44-13.48-1.55-27.71-.98-38.87,7.59Z"/>
    <path class="cls-19" d="m1001.34,1447.5c-.25,1.11-.51,2.08-.73,2.87-13.52-2.78-27.91.99-38.31,10.18-1.43,1.26-3.1-1.18-1.69-2.43,10.97-9.68,26.46-13.65,40.73-10.62Z"/>
  </g>
  <g>
    <path class="cls-24" d="m976.11,1559.45s9.87-52.14-58.29-87.3c0,0,11.85-32.4-18.25-36.18-30.1-3.78-33.55,26.78-33.55,26.78,0,0-15.29-10.22-19.87-9.36s-3.15-2.14-21.16,65.76l-2.46,14.82,153.59,25.49Z"/>
    <path class="cls-14" d="m976.11,1559.45l-153.59-25.49,2.46-14.82c.26-.98.5-1.89.75-2.84l149.92,24.88c1.84,10.97.46,18.27.46,18.27Z"/>
    <path class="cls-19" d="m945.18,1490.49c-15.06-5.44-31.86-2.06-43.78,8.55-1.42,1.27-3.13-1.15-1.72-2.41,11.02-9.81,25.99-13.57,40.19-10.66,1.97,1.51,3.8,3.03,5.56,4.55-.09-.02-.16,0-.25-.04Z"/>
    <path class="cls-19" d="m891.69,1487.54c-1.5,1.18-3.21-1.23-1.72-2.41,10.02-7.92,22.56-9.67,34.94-9.09,1.91,1.11,3.76,2.23,5.54,3.37-13.5-1.36-27.73-.6-38.76,8.13Z"/>
    <path class="cls-19" d="m919.19,1467.11c-.23,1.12-.48,2.09-.69,2.88-13.56-2.59-27.89,1.38-38.17,10.71-1.41,1.28-3.12-1.14-1.72-2.41,10.84-9.83,26.27-14.02,40.58-11.18Z"/>
  </g>
  <path class="cls-24" d="m590.13,1027.17v163.71c0,8-6.82,14.48-15.24,14.48h0c-8.42,0-15.24-6.48-15.24-14.48v-163.71c0-8.61,7.86-15.32,16.87-14.4h0c7.74.79,13.61,7,13.61,14.4Z"/>
  <g>
    <path class="cls-24" d="m434.12,989.72h198.36s28.85,61.68,28.85,61.68l-26.31.54-12.19-27.21h-189.82s-30.48,1.58-30.48-17.9c0-19.48,31.59-17.11,31.59-17.11Z"/>
    <polygon class="cls-22" points="658.67 989.72 686.02 1050.89 661.33 1051.4 632.48 989.72 658.67 989.72"/>
  </g>
  <g>
    <polygon class="cls-13" points="1114.42 666.17 1137.97 710.41 979.88 762.89 981.24 713.26 1114.42 666.17"/>
    <g>
      <polygon class="cls-17" points="979.88 762.89 979.88 798.45 1137.97 798.45 1137.97 710.41 979.88 762.89"/>
      <rect class="cls-22" x="987.07" y="798.45" width="142.06" height="11.18"/>
      <rect class="cls-19" x="1100.42" y="761.24" width="6.22" height="25.81"/>
      <rect class="cls-19" x="1111.66" y="761.24" width="6.22" height="25.81"/>
      <rect class="cls-19" x="1122.91" y="761.24" width="6.22" height="25.81"/>
      <rect class="cls-24" x="1050.32" y="769.6" width="8.24" height="8.94"/>
    </g>
    <g>
      <polygon class="cls-19" points="1024.23 742.01 1013.95 705.41 1085.38 683.65 1104.69 717.5 1024.23 742.01"/>
      <g>
        <polygon class="cls-24" points="1066.14 700.73 1064.26 697.17 1079.74 692.46 1081.89 695.93 1066.14 700.73"/>
        <polygon class="cls-22" points="1074.18 715.89 1067.77 703.81 1083.76 698.94 1091.1 710.74 1074.18 715.89"/>
        <polygon class="cls-17" points="1052.38 722.53 1047.18 710.08 1063.17 705.21 1069.3 717.37 1052.38 722.53"/>
        <polygon class="cls-22" points="1040.63 726.11 1036.07 713.46 1042.57 711.48 1047.51 724.01 1040.63 726.11"/>
        <polygon class="cls-17" points="1027.97 726.72 1024.96 716.84 1031.46 714.86 1034.76 724.65 1027.97 726.72"/>
      </g>
    </g>
  </g>
  <g>
    <path class="cls-16" d="m1221.57,695.13s-58.72-45.53-69.14-46.97c-5.67-.78-22.89-.74-24.85.79-3.24,2.52-28.27,20.13-29.21,23.36-.94,3.24.78,3.15.78,3.15,0,0-2.17,1.87,1.58,6.77,0,0,1.67,7.98,15.01,5.16,13.35-2.83,17.06-3.76,18.17-3.04,1.11.72,20.32,18.34,24.71,23.57,4.39,5.24,31.01,16.08,51.25,21.33,0,0,7.19-26.86,11.72-34.12Z"/>
    <path class="cls-14" d="m1107.84,667.8c-2.92,1.13-5.83,2.27-8.75,3.4.71-.83,1.9-1.94,3.4-3.23,4.96-1.93,9.92-3.86,14.87-5.79,3.38-1.31,6.76-2.76,10.33-3.5,3.45-.71,6.93-.53,10.34.31,3.99.98,7.72,2.75,11.41,4.51,1.02.49.46,2.18-.58,1.69-6.23-2.98-12.96-6.13-20.05-4.91-3.56.62-6.91,2.04-10.25,3.34-3.57,1.39-7.15,2.78-10.72,4.17Z"/>
    <path class="cls-14" d="m1150.28,653.38c-3.69-1.76-7.42-3.53-11.41-4.51-3.39-.83-6.85-1.02-10.28-.32-.45.12-.82.25-1.01.4-.63.49-2.08,1.55-4.01,2.95,1.98-.73,3.99-1.38,6.08-1.74,7.09-1.23,13.82,1.92,20.05,4.91,1.04.5,1.6-1.2.58-1.69Z"/>
    <path class="cls-14" d="m1118.18,675.68c3.6-1.44,7.18-2.94,10.79-4.33,1.49-.57,3.05-1.06,4.66-.88,1.59.18,3.04.88,4.39,1.72,3.78,2.34,7.37,5.01,11.04,7.52.95.65-.06,2.12-1.01,1.47-3.06-2.1-6.13-4.2-9.19-6.29-1.39-.95-2.81-1.99-4.45-2.45-1.75-.49-3.38,0-5.01.65-6.93,2.73-13.83,5.55-20.74,8.33-2.33.94-4.66,1.87-6.99,2.81-.45-.64-.7-1.22-.83-1.59,5.78-2.32,11.56-4.64,17.34-6.96Z"/>
  </g>
  <path class="cls-12" d="m1211.13,680.56s-6.52,38.38-15.39,54.18l141.1,48.45s27.15,3.23,31.13-26.42c3.98-29.65-35.19-38.05-35.19-38.05l-121.66-38.16Z"/>
  <path class="cls-16" d="m1549.24,508.13c-1.74,16.51-10.61,23.62-19.2,31.49-8.58,7.87-29.4,12.25-44.54,12.24-15.14,0-29.2-14.44-37.38-29.16-8.18-14.73-6.96-77.13-6.96-77.13l104.69-25.27-2.61,60.42s2.82-17.73,20.35-17.39c17.53.35,12.61,30.1,3.03,38.53-9.58,8.43-17.39,6.26-17.39,6.26Z"/>
  <path class="cls-14" d="m1554.26,465.24s-11.37,4.53-9.96,21.2l-4.41.22.09-21.17s-13.9-12.39-15.88-24.99c0,0-5.95,8-30.17,8.44,0,0,12.33-7.35,13.48-15.11,0,0-59.87,37.64-95.24-3.68,0,0,25.39-.12,26.82-2.31,0,0-25.51-17.57-19.47-46.74,0,0,15.79,7.87,20.78,7.61,0,0-7.11-7.53-7.62-21.36,0,0,107.23,12.51,125.5,39.1,0,0,11.65-5.59,14.86-14.41,0,0,7.68,18.86-5.62,26.07,0,0,15.63,21.56,2.21,46.91,0,0-4.83-3.6-15.37.2Z"/>
  <path class="cls-9" d="m1476.44,506.79c-3.95-1.08-12.29-7.84-5.14-10.7,7.15-2.86,8.34-7.97,6.25-14.9"/>
  <path class="cls-9" d="m1473.99,524.85s16.29,5.24,26.76-4.45"/>
  <g>
    <ellipse class="cls-14" cx="1458.23" cy="480.67" rx="6.18" ry="6.77" transform="translate(862.53 1895.81) rotate(-85.42)"/>
    <ellipse class="cls-18" cx="1456.09" cy="482.38" rx="1.37" ry="1.21" transform="translate(-7.59 23.53) rotate(-.92)"/>
  </g>
  <path class="cls-14" d="m1465.86,466.01c1.84-1.54,1.66-3.37-.51-4.05-3.85-1.21-13.03-.39-15.26.27-2.93.86-7.14,6.58-4.66,6.52,2.48-.06,5.09-2.81,8.29-2.5,3.19.31,8.18,1.25,11.4.24.47-.15.53-.3.74-.48Z"/>
  <g>
    <ellipse class="cls-14" cx="1499.07" cy="478.19" rx="6.18" ry="6.77" transform="translate(902.58 1934.23) rotate(-85.42)"/>
    <ellipse class="cls-18" cx="1496.93" cy="479.9" rx="1.37" ry="1.21" transform="translate(-7.54 24.19) rotate(-.92)"/>
  </g>
  <path class="cls-14" d="m1490.92,464.53c-2.09-1.12-2.29-2.94-.32-4.03,3.51-1.93,12.59-2.94,14.88-2.75,3.01.25,8.25,4.97,5.83,5.4-2.42.43-5.51-1.72-8.55-.79-3.04.93-7.7,2.83-11.03,2.48-.49-.05-.57-.19-.82-.32Z"/>
  <g>
    <path class="cls-16" d="m1428.22,773.93s-68.76-28.16-79.19-26.76c-5.67.76-22.25,5.41-23.74,7.41-2.45,3.3-21.86,26.96-21.9,30.33-.04,3.37,1.6,2.83,1.6,2.83,0,0-1.59,2.39,3.33,6.1,0,0,3.74,7.25,15.85.95,12.1-6.3,15.43-8.19,16.69-7.79s24.48,12.23,30.12,16.1c5.63,3.87,34.18,7.19,55.09,6.84,0,0-.26-27.8,2.16-36.01Z"/>
    <path class="cls-14" d="m1311.32,778.03c-2.51,1.87-5.01,3.75-7.52,5.62.46-.99,1.31-2.38,2.41-4.02,4.26-3.19,8.52-6.37,12.78-9.56,2.9-2.17,5.78-4.47,9.01-6.14,3.13-1.61,6.53-2.36,10.05-2.47,4.1-.12,8.18.58,12.2,1.3,1.12.2,1.02,1.98-.11,1.78-6.81-1.21-14.13-2.44-20.63.64-3.26,1.54-6.11,3.81-8.98,5.96-3.07,2.3-6.14,4.59-9.22,6.89Z"/>
    <path class="cls-14" d="m1348.36,752.78c-4.02-.71-8.1-1.42-12.2-1.3-3.49.1-6.87.85-9.99,2.45-.4.24-.72.46-.87.65-.47.64-1.59,2.05-3.07,3.91,1.72-1.23,3.48-2.39,5.39-3.3,6.5-3.08,13.83-1.85,20.63-.64,1.13.2,1.22-1.58.11-1.78Z"/>
    <path class="cls-14" d="m1323.4,782.86c3.08-2.35,6.13-4.75,9.24-7.06,1.28-.95,2.65-1.83,4.26-2.09,1.58-.25,3.17.04,4.69.48,4.26,1.24,8.45,2.86,12.65,4.3,1.08.37.51,2.06-.58,1.69-3.51-1.2-7.02-2.41-10.54-3.61-1.59-.54-3.24-1.17-4.94-1.17-1.81,0-3.25.91-4.65,1.97-5.95,4.49-11.84,9.05-17.76,13.57-2,1.53-3.99,3.05-5.99,4.58-.6-.5-1-.99-1.22-1.31,4.95-3.78,9.89-7.56,14.84-11.35Z"/>
  </g>
  <path class="cls-20" d="m1581.33,610.93s-13.45,19.07-28.3,67.22c-12.91,41.86-15.79,80.46-15.79,80.46l-53.47,6.21s61.44,31.6,78.12,24.51c16.68-7.09,19.44-178.41,19.44-178.41Z"/>
  <path class="cls-12" d="m1419.45,762.7s3.99,38.73-.33,56.32l148.92,8.93s27.03-4.15,22.93-33.78c-4.1-29.64-44.08-27.25-44.08-27.25l-127.43-4.22Z"/>
  <path class="cls-12" d="m1619.06,593.89s-35.16-16.71-50.29,37.33c-15.13,54.04-33.3,167.37-33.3,167.37,0,0,14.46,30.54,44.79,21.92,4.28-1.22,7.94-4.35,9.5-8.52,18.35-48.9,33.34-100.46,45.85-154.12,0,0,18.45-51.98-16.55-63.99Z"/>
  <path class="cls-16" d="m976.81,778.8s-193.89-39.1-208.28-1.5c-14.39,37.59,53.57,29.76,53.57,29.76l150.7-.39,4.02-27.87Z"/>
  <path class="cls-16" d="m976.81,778.8s31.98-11.89,36.83-12.83c4.85-.94,23.29-8.96,26.16-4.23,4.27,7.03-21.72,14.69-21.26,16.51.45,1.82,48.24.02,49.42,4.45,1.18,4.43-3.1,5.96-19.9,7.06,0,0,22.33-1.85,23.43,1.78,1.1,3.63-2.86,6.83-27.62,5.99,0,0,23.13-.18,23.83,3.48.7,3.66-7.45,4.46-26.25,5.45,0,0,20.59-3.11,21.75,1.61,1.16,4.72-16.31,12.24-43.65,9.81-27.34-2.43-51.86-11.12-51.86-11.12l9.12-27.96Z"/>
  <path class="cls-3" d="m1058.73,788.27s-25.58,4.03-40.1-.15"/>
  <path class="cls-3" d="m1056.57,797.6s-23.9,1.98-38.43-2.19"/>
  <path class="cls-3" d="m1056.55,805.25s-23.39,1.79-37.91-2.38"/>
  <rect class="cls-22" x="507.36" y="812.74" width="60.96" height="740.5"/>
  <rect class="cls-22" x="1591.67" y="812.74" width="60.96" height="740.5"/>
  <rect class="cls-24" x="1591.67" y="843.97" width="60.96" height="68.01"/>
  <rect class="cls-24" x="507.36" y="843.97" width="60.96" height="68.01"/>
  <rect class="cls-14" x="463.18" y="806.26" width="1234.06" height="54.69" rx="26.51" ry="26.51"/>
  <path class="cls-4" d="m788.55,751.46c-6.2-.71-20.09-.54,31.17,32.49,19.06,12.28,69.4,16.96,93.55,13.2,66.57-10.37,100.51-11.19,141.17-23.08"/>
  <g>
    <path class="cls-16" d="m386.8,1267c32.83-5.19,118.07-53.43,48.46-54.91,0,0,114.16-47.3,27.41-56.62,0,0,118.53-46.43,29.43-57.87,0,0,48.48-42.54,27.88-67.55-28.6-34.73-76.02,50.11-76.02,50.11,0,0-34.33-65.23-41.69,57.82,0,0-71.08-61.65-27.96,57.54,0,0-58.37-41.79-11.69,61,3.93,8.65,14.8,11.97,24.18,10.49Z"/>
    <path class="cls-1" d="m499.87,1046.32s-107.7,139.55-157.4,298.38"/>
  </g>
  <g>
    <path class="cls-12" d="m274.29,1264.31c-32.83-5.19-118.07-53.43-48.46-54.91,0,0-114.16-47.3-27.41-56.62,0,0-118.53-46.43-29.43-57.87,0,0-48.48-42.54-27.88-67.55,28.6-34.73,76.02,50.11,76.02,50.11,0,0,34.33-65.23,41.69,57.82,0,0,71.08-61.65,27.96,57.54,0,0,58.37-41.79,11.69,61-3.93,8.65-14.8,11.97-24.18,10.49Z"/>
    <path class="cls-10" d="m165.86,1046s95.69,121.92,150.16,296.02"/>
  </g>
  <g>
    <path class="cls-22" d="m341.13,1264.62c33.12-18.53,105.35-103.9,30.21-77.97,0,0,103.59-95.79,6.97-71.48,0,0,108.61-96.58,8.65-73.62,0,0,35.12-64.73,3.17-83.38-44.36-25.89-61.62,83.73-61.62,83.73,0,0-62.56-56.3-21.8,78.42,0,0-100.5-37.94-7.2,72.68,0,0-79.04-21.69,11.59,69.96,7.62,7.71,20.59,6.97,30.05,1.68Z"/>
    <path class="cls-6" d="m375.01,983.55s-60.21,192.04-50.66,381.82"/>
  </g>
  <g>
    <path class="cls-16" d="m243.6,1548.98h145.92c10.99,0,20.22-8.26,21.43-19.18l20.01-180.1h-228.8s20.01,180.1,20.01,180.1c1.21,10.92,10.44,19.18,21.43,19.18Z"/>
    <polygon class="cls-24" points="430.96 1349.7 202.16 1349.7 207.59 1396.3 424.78 1396.68 430.96 1349.7"/>
    <rect class="cls-16" x="187.4" y="1312.79" width="258.33" height="44.28" rx="3.28" ry="3.28"/>
  </g>
  <rect class="cls-16" x="950.13" y="382.88" width="228.04" height="217.93" rx="39.42" ry="39.42"/>
  <rect class="cls-19" x="961.05" y="393.31" width="206.21" height="197.07" rx="35.64" ry="35.64"/>
  <path class="cls-16" d="m1058.81,440.28c-49.63-38.87-79.74,15.12-65.89,50.38,11.17,28.42,65.89,66.23,65.89,66.23,0,0,54.72-37.81,65.89-66.23,13.85-35.26-16.26-89.25-65.89-50.38Z"/>
  <polyline class="cls-8" points="1132.87 490.36 1101.13 490.36 1093.83 478.96 1083.78 493.11 1073.24 454.97 1063.19 525.73 1052.99 478.55 1046.87 491.93 989.55 491.93"/>
  <line class="cls-2" x1="1105.95" y1="546.69" x2="1157.92" y2="546.69"/>
  <line class="cls-2" x1="1114.88" y1="533.35" x2="1157.92" y2="533.35"/>
  <line class="cls-2" x1="1125.11" y1="520" x2="1157.92" y2="520"/>
  <path class="cls-22" d="m809.08,335.67h69.05c27.66,0,50.09,22.42,50.09,50.09v18.48c0,27.66-22.42,50.09-50.09,50.09h-64.85c-2.12,0-4.21-.15-6.27-.4l-29.47,21.31,9.18-26.18c-16.44-8.21-27.73-25.19-27.73-44.82v-18.48c0-27.66,22.42-50.09,50.09-50.09Z"/>
  <circle class="cls-19" cx="877.07" cy="394.52" r="9.35"/>
  <circle class="cls-19" cx="843.61" cy="394.52" r="9.35"/>
  <circle class="cls-19" cx="810.15" cy="394.52" r="9.35"/>
  <path class="cls-22" d="m1320.5,335.67h-69.05c-27.66,0-50.09,22.42-50.09,50.09v18.48c0,27.66,22.42,50.09,50.09,50.09h64.85c2.12,0,4.21-.15,6.27-.4l29.47,21.31-9.18-26.18c16.44-8.21,27.73-25.19,27.73-44.82v-18.48c0-27.66-22.42-50.09-50.09-50.09Z"/>
  <circle class="cls-19" cx="1319.43" cy="394.52" r="9.35"/>
  <circle class="cls-19" cx="1285.98" cy="394.52" r="9.35"/>
  <circle class="cls-19" cx="1252.52" cy="394.52" r="9.35"/>
</svg>