<?xml version="1.0" encoding="UTF-8"?>
<svg id="Layer_1" data-name="Layer 1" xmlns="http://www.w3.org/2000/svg" viewBox="0 0 2000 2000">
  <desc>The patient is undergoing orthopedic rehabilitation with a physiotherapist. Physiotherapy</desc>
<metadata><?xpacket begin="﻿" id="W5M0MpCehiHzreSzNTczkc9d"?>
<x:xmpmeta xmlns:x="adobe:ns:meta/" x:xmptk="Adobe XMP Core 7.1-c000 79.4d2f597, 2021/09/01-20:51:22        ">
   <rdf:RDF xmlns:rdf="http://www.w3.org/1999/02/22-rdf-syntax-ns#">
      <rdf:Description rdf:about=""
            xmlns:xmp="http://ns.adobe.com/xap/1.0/"
            xmlns:xmpMM="http://ns.adobe.com/xap/1.0/mm/"
            xmlns:stEvt="http://ns.adobe.com/xap/1.0/sType/ResourceEvent#"
            xmlns:photoshop="http://ns.adobe.com/photoshop/1.0/"
            xmlns:xmpRights="http://ns.adobe.com/xap/1.0/rights/"
            xmlns:dc="http://purl.org/dc/elements/1.1/"
            xmlns:Iptc4xmpCore="http://iptc.org/std/Iptc4xmpCore/1.0/xmlns/">
         <xmp:MetadataDate>2024-07-19T13:46:04+07:00</xmp:MetadataDate>
         <xmpMM:InstanceID>xmp.iid:d2e81990-2fc0-234c-a76d-a65fefa1080c</xmpMM:InstanceID>
         <xmpMM:DocumentID>xmp.did:d319c211-6229-4c4d-b560-2db6a9095bd8</xmpMM:DocumentID>
         <xmpMM:OriginalDocumentID>xmp.did:d319c211-6229-4c4d-b560-2db6a9095bd8</xmpMM:OriginalDocumentID>
         <xmpMM:History>
            <rdf:Seq>
               <rdf:li>
                  <rdf:Description>
                     <stEvt:action>saved</stEvt:action>
                     <stEvt:instanceID>xmp.iid:d319c211-6229-4c4d-b560-2db6a9095bd8</stEvt:instanceID>
                     <stEvt:when>2024-07-19T11:05:55+07:00</stEvt:when>
                     <stEvt:softwareAgent>Adobe Bridge 2023</stEvt:softwareAgent>
                     <stEvt:changed>/metadata</stEvt:changed>
                  </rdf:Description>
               </rdf:li>
               <rdf:li>
                  <rdf:Description>
                     <stEvt:action>saved</stEvt:action>
                     <stEvt:instanceID>xmp.iid:d2e81990-2fc0-234c-a76d-a65fefa1080c</stEvt:instanceID>
                     <stEvt:when>2024-07-19T13:46:04+07:00</stEvt:when>
                     <stEvt:softwareAgent>Adobe Bridge 2023</stEvt:softwareAgent>
                     <stEvt:changed>/metadata</stEvt:changed>
                  </rdf:Description>
               </rdf:li>
            </rdf:Seq>
         </xmpMM:History>
         <photoshop:AuthorsPosition>Motion design</photoshop:AuthorsPosition>
         <xmpRights:Marked>True</xmpRights:Marked>
         <dc:creator>
            <rdf:Seq>
               <rdf:li>Muhammad Noor Ridho</rdf:li>
            </rdf:Seq>
         </dc:creator>
         <dc:description>
            <rdf:Alt>
               <rdf:li xml:lang="x-default">The patient is undergoing orthopedic rehabilitation with a physiotherapist. Physiotherapy</rdf:li>
            </rdf:Alt>
         </dc:description>
         <dc:subject>
            <rdf:Bag>
               <rdf:li>balance</rdf:li>
               <rdf:li>bone</rdf:li>
               <rdf:li>broken</rdf:li>
               <rdf:li>care</rdf:li>
               <rdf:li>cartoon</rdf:li>
               <rdf:li>character</rdf:li>
               <rdf:li>chiropractic</rdf:li>
               <rdf:li>clinic</rdf:li>
               <rdf:li>concept</rdf:li>
               <rdf:li>doctor</rdf:li>
               <rdf:li>exercise</rdf:li>
               <rdf:li>flat</rdf:li>
               <rdf:li>graphic</rdf:li>
               <rdf:li>health</rdf:li>
               <rdf:li>help</rdf:li>
               <rdf:li>hospital</rdf:li>
               <rdf:li>illustration</rdf:li>
               <rdf:li>injury</rdf:li>
               <rdf:li>isolated</rdf:li>
               <rdf:li>leg</rdf:li>
               <rdf:li>male</rdf:li>
               <rdf:li>man</rdf:li>
               <rdf:li>manual</rdf:li>
               <rdf:li>medical</rdf:li>
               <rdf:li>medicine</rdf:li>
               <rdf:li>orthopedic</rdf:li>
               <rdf:li>osteopathy</rdf:li>
               <rdf:li>pain</rdf:li>
               <rdf:li>patient</rdf:li>
               <rdf:li>people</rdf:li>
               <rdf:li>person</rdf:li>
               <rdf:li>physical</rdf:li>
               <rdf:li>physiotherapist</rdf:li>
               <rdf:li>physiotherapy</rdf:li>
               <rdf:li>professional</rdf:li>
               <rdf:li>rehab</rdf:li>
               <rdf:li>rehabilitation</rdf:li>
               <rdf:li>service</rdf:li>
               <rdf:li>sport</rdf:li>
               <rdf:li>surgery</rdf:li>
               <rdf:li>therapist</rdf:li>
               <rdf:li>therapy</rdf:li>
               <rdf:li>training</rdf:li>
               <rdf:li>trauma</rdf:li>
               <rdf:li>treatment</rdf:li>
               <rdf:li>vector</rdf:li>
               <rdf:li>visit</rdf:li>
               <rdf:li>walk</rdf:li>
               <rdf:li>woman</rdf:li>
               <rdf:li>young</rdf:li>
            </rdf:Bag>
         </dc:subject>
         <Iptc4xmpCore:CreatorContactInfo>
            <rdf:Description>
               <Iptc4xmpCore:CiAdrCtry>Indonesia</Iptc4xmpCore:CiAdrCtry>
               <Iptc4xmpCore:CiAdrExtadr>Garung kidul rt05rw02</Iptc4xmpCore:CiAdrExtadr>
               <Iptc4xmpCore:CiAdrRegion>jawa tengah</Iptc4xmpCore:CiAdrRegion>
               <Iptc4xmpCore:CiEmailWork>muhammadnoorridho@gmail.com</Iptc4xmpCore:CiEmailWork>
               <Iptc4xmpCore:CiAdrCity>kudus</Iptc4xmpCore:CiAdrCity>
               <Iptc4xmpCore:CiTelWork>+6289670118696</Iptc4xmpCore:CiTelWork>
            </rdf:Description>
         </Iptc4xmpCore:CreatorContactInfo>
      </rdf:Description>
   </rdf:RDF>
</x:xmpmeta>
                                                                                                    
                                                                                                    
                                                                                                    
                                                                                                    
                                                                                                    
                                                                                                    
                                                                                                    
                                                                                                    
                                                                                                    
                                                                                                    
                                                                                                    
                                                                                                    
                                                                                                    
                                                                                                    
                                                                                                    
                                                                                                    
                                                                                                    
                                                                                                    
                                                                                                    
                                                                                                    
                           
<?xpacket end="w"?></metadata>
<defs>
    <style>
      .cls-1 {
        fill: #47a5b0;
      }

      .cls-2 {
        fill: #231c1c;
      }

      .cls-3 {
        fill: #ed9b97;
      }

      .cls-4 {
        opacity: .91;
      }

      .cls-4, .cls-5, .cls-6 {
        fill: #44828a;
      }

      .cls-5 {
        opacity: .56;
      }

      .cls-7 {
        stroke: #47a5b0;
        stroke-width: 12px;
      }

      .cls-7, .cls-8 {
        fill: #fff3e3;
      }

      .cls-7, .cls-9, .cls-10, .cls-11, .cls-12 {
        stroke-miterlimit: 10;
      }

      .cls-13 {
        fill: #ffdfb8;
      }

      .cls-14 {
        fill: #f9f7f7;
      }

      .cls-15 {
        fill: #525887;
      }

      .cls-9 {
        stroke: #201c1c;
        stroke-linecap: round;
        stroke-width: .96px;
      }

      .cls-9, .cls-10, .cls-11, .cls-12 {
        fill: none;
      }

      .cls-16 {
        fill: #e08989;
      }

      .cls-10 {
        stroke-width: 3px;
      }

      .cls-10, .cls-12 {
        stroke: #231c1c;
      }

      .cls-11 {
        stroke: #fff3e3;
      }

      .cls-11, .cls-12 {
        stroke-width: 2px;
      }

      .cls-17 {
        fill: #201c1c;
      }

      .cls-18 {
        fill: #eeeded;
      }
    </style>
  </defs>
  <g>
    <path class="cls-6" d="m1543.21,979.59c-2.37-19.04-5.08-38.03-8.11-56.97-.15-.92-1.61-.83-1.46.11,5.38,33.62,9.73,67.4,13.02,101.29,3.28,33.72,5.52,67.53,6.72,101.38.68,19.17,1.02,38.36,1.03,57.54,0,.94,1.46.83,1.46-.11-.02-34.05-1.09-68.09-3.21-102.07-2.11-33.81-5.26-67.55-9.45-101.17Z"/>
    <g>
      <path class="cls-6" d="m1497.38,847.11s-19.77,67.54,39.4,87.92c0,0,17.74-55.5-39.4-87.92Z"/>
      <path class="cls-1" d="m1525.57,904.75c-5.84-12.96-12.08-25.75-18.16-38.6-2.87-6.06-5.73-12.13-8.6-18.19-.48-.28-.94-.56-1.43-.84,0,0-.02.07-.05.19,5.73,12.12,11.46,24.24,17.19,36.36,5.87,12.41,12.04,24.76,16.73,37.68,1.57,4.32,2.95,8.7,4.08,13.16.4.15.8.3,1.2.44-2.57-10.4-6.56-20.43-10.96-30.19Z"/>
    </g>
    <g>
      <path class="cls-6" d="m1488.9,992.75s8.31,59.48,61.5,54.58c0,0-5.67-49.41-61.5-54.58Z"/>
      <path class="cls-1" d="m1531.05,1027.7c-9.09-8.04-18.43-15.8-27.67-23.66-4.36-3.71-8.72-7.42-13.07-11.13-.47-.05-.93-.11-1.41-.15,0,0,0,.06.03.17,8.71,7.42,17.42,14.84,26.13,22.25,8.92,7.6,18.05,15.04,26.24,23.45,2.74,2.81,5.35,5.74,7.79,8.8.36-.03.72-.05,1.09-.08-5.65-7.19-12.27-13.59-19.12-19.64Z"/>
    </g>
    <g>
      <path class="cls-6" d="m1542.53,981.02s-6.7-22.52,6.79-40.24c13.49-17.72,25.04-20.11,34.26-26.24,0,0,11.69,50.83-41.05,66.48Z"/>
      <path class="cls-1" d="m1545.75,968.62c-1.43,3.25-2.69,6.58-3.8,9.96.2.96.37,1.66.47,2.05,2.57-8.43,6.28-16.49,10.71-24.11,5.61-9.65,12.32-18.61,19.39-27.24,3.7-4.52,7.51-8.96,11.32-13.4-.15-.85-.25-1.32-.26-1.35-7.27,8.46-14.53,16.95-21.14,25.94-6.46,8.8-12.29,18.12-16.7,28.13Z"/>
    </g>
    <g>
      <path class="cls-6" d="m1547.91,1030.06s-2.78-23.33,13.52-38.51c16.3-15.18,28.09-15.57,38.21-20.04,0,0,2.9,52.08-51.73,58.55Z"/>
      <path class="cls-1" d="m1553.18,1018.39c-1.97,2.96-3.77,6.03-5.43,9.17.03.98.08,1.7.12,2.11,3.97-7.87,8.99-15.18,14.65-21.94,7.17-8.56,15.3-16.25,23.73-23.55,4.42-3.83,8.92-7.56,13.43-11.28,0-.86-.02-1.34-.03-1.37-8.6,7.1-17.19,14.23-25.23,21.98-7.86,7.58-15.18,15.78-21.23,24.89Z"/>
    </g>
    <g>
      <path class="cls-6" d="m1486.68,941.43s7.03,53.68,58.85,56.19c0,0-.45-19.75-13.13-34.81-12.69-15.05-34.96-20.15-45.72-21.38Z"/>
      <path class="cls-1" d="m1528.9,975.04c-3.79-4.55-7.85-8.89-12.25-12.86-4.31-3.89-8.93-7.43-13.7-10.74-5.05-3.51-10.28-6.75-15.55-9.91-.24-.03-.49-.06-.72-.09,0,0,.05.35.16,1,9.63,5.78,19.14,11.84,27.62,19.23,8.81,7.67,16.2,16.77,22.95,26.26,2.25,3.16,4.42,6.37,6.57,9.6.45.03.89.06,1.35.09-5.16-7.75-10.46-15.41-16.42-22.57Z"/>
    </g>
    <g>
      <path class="cls-6" d="m1619.9,1019.08s-14.67,55.34-69.35,50.93c0,0,3.15-20.65,18.5-34.72,15.35-14.06,39.4-16.38,50.85-16.21Z"/>
      <path class="cls-1" d="m1571.06,1048.59c4.59-4.26,9.44-8.26,14.59-11.83,5.05-3.49,10.38-6.58,15.83-9.4,5.77-2.99,11.7-5.68,17.65-8.28.26,0,.52,0,.77,0,0,0-.1.37-.3,1.03-10.88,4.75-21.68,9.82-31.57,16.42-10.28,6.85-19.27,15.38-27.63,24.42-2.78,3.01-5.5,6.08-8.2,9.17-.47-.03-.95-.05-1.42-.09,6.46-7.43,13.07-14.74,20.29-21.44Z"/>
    </g>
  </g>
  <g>
    <path class="cls-3" d="m641.66,1476.18l-1.02,62.76s30.07,4.7,41.24-2.69l6.24-66.87-46.45,6.81Z"/>
    <g>
      <path class="cls-15" d="m769.14,1602.84s8.58-23.42-29.25-35.83c-49.74-16.32-54.12-32.57-62.34-33.59-8.22-1.03-5.57,3.59-13.79,4.87-8.22,1.28-19.52-.22-21.91-3.29-2.39-3.08-6.63-2.05-8.09,3.2s-2.76,36.5-3.03,49.44c-.27,12.95,0,15.2,0,15.2h138.41Z"/>
      <path class="cls-3" d="m769.14,1602.84s1.28-3.51.67-8.53h-139.18c-.06,6.63.08,8.32.1,8.51,0,.01,0,.02,0,.02h138.41Z"/>
      <path class="cls-3" d="m646.62,1602.84h4.39c3.83-7.77,6.01-16.36,5.45-24.98-.62-9.48-4.7-18.67-11.84-25.28-2.79-2.58-8.4-4.99-11.9-6.5-.19,1.22-.13,2.8-.33,4.19,6.13,2.94,13.15,8.03,16.3,13.95,4.44,8.36,4.83,18.13,2.48,27.14-1.05,4-2.6,7.82-4.55,11.47Z"/>
      <g>
        <path class="cls-13" d="m709.82,1525.81c-1.82-3.65-6.29-6.02-10.39-4.59-4.48,1.56-6.53,5.78-7.01,10.09-.2,1.78-.21,3.6-.1,5.43-.86-.77-1.76-1.49-2.71-2.15-3.97-2.78-9.29-4.82-14.25-4.24-5.21.6-9.92,4.82-8.96,10.2.88,4.92,6.21,7.81,10.69,9.18,3.78,1.15,7.74,1.43,11.7,1.41-2.81,3.92-4.54,8.53-4.9,13.4-.1,1.37,1.28,2.54,2.62,2.54,1.5,0,2.52-1.16,2.62-2.54.11-1.54.38-2.94.93-4.65.13-.4.27-.79.42-1.19.08-.22.17-.43.26-.65.02-.04.03-.07.04-.09,0-.02.02-.04.03-.08.37-.81.78-1.6,1.24-2.36.9-1.5,1.7-2.56,2.82-3.75,1.25-1.32,2.45-2.32,3.83-3.22.16-.11.31-.23.45-.36.21-.06.41-.14.59-.26,6.63-4.55,14.18-13.89,10.07-22.12Zm-27.6,19.87c-3.41-.53-7.69-1.64-9.9-4.45-2.15-2.73.53-5.49,3.51-5.87,3.7-.47,7.65,1.29,10.63,3.27,2.82,1.87,5.05,4.42,6.64,7.33-3.62.17-7.3.28-10.87-.27Zm21.82-9.73c-1.42,2.53-3.36,4.77-5.65,6.6-.48-2.55-.76-5.12-.83-7.72-.07-2.73-.07-6.1,2.25-8.07,1.82-1.55,3.96-.93,5.16,1.02,1.56,2.53.43,5.76-.92,8.16Z"/>
        <path class="cls-13" d="m716.87,1554.74c-.21-.61-.6-1.21-1.21-1.52-.67-.34-1.28-.36-2.02-.26-4.62.66-9.04,3.05-12.09,6.47-.9,1-1.1,2.61,0,3.59.98.87,2.75,1.07,3.71,0,.67-.75,1.39-1.44,2.18-2.06.04-.03.08-.07.13-.11.02,0,.04-.02.1-.07.21-.15.43-.3.64-.44.44-.28.88-.55,1.34-.79.43-.23.88-.44,1.33-.64,0,0,0,0,.01,0,.08-.03.16-.06.25-.09.24-.09.49-.18.74-.26,1-.32,2.02-.55,3.05-.7.61-.09,1.27-.68,1.57-1.17.33-.54.47-1.34.26-1.95Z"/>
        <g>
          <path class="cls-13" d="m731.55,1561.8c-.48-1.44-1.77-1.98-3.23-1.77-4.94.72-9.66,3.26-12.94,6.9-.9,1-1.09,2.62,0,3.59.99.88,2.75,1.07,3.71,0,.72-.8,1.5-1.54,2.35-2.21,0,0,0,0,.01,0-.01,0-.02,0-.03.01.03,0,.07-.04.11-.07.02-.01.05-.04.07-.05.05-.04.09-.08.12-.1.23-.16.46-.32.69-.47.47-.3.95-.59,1.45-.85.47-.25.95-.47,1.43-.69.01,0,.01,0,.02-.01.1-.04.2-.08.3-.12.26-.1.53-.19.8-.28,1.07-.35,2.17-.6,3.29-.76,1.36-.2,2.23-1.92,1.83-3.12Z"/>
          <path class="cls-13" d="m721.47,1568.29c.15-.05.23-.14.15-.1-.02.02-.04.03-.07.05-.02.02-.04.03-.08.06Z"/>
        </g>
        <path class="cls-13" d="m747.49,1568.91c-.06-1.23-1.22-2.71-2.74-2.54-2.61.3-5.02.9-7.43,1.87-2.2.89-4.2,2.13-6.02,3.57-1.09.87-1.03,2.71,0,3.59,1.16.99,2.71.92,3.88,0,.2-.16.4-.31.59-.46,0,0,0,0,.02-.01.07-.05.13-.09.2-.14.42-.28.84-.55,1.28-.8.85-.49,1.73-.92,2.65-1.3.05-.02.07-.03.1-.04.02,0,.02,0,.04-.01.24-.08.48-.17.72-.25.49-.16.98-.31,1.47-.43.5-.13,1-.24,1.5-.34.25-.05.51-.09.76-.13.13-.02.25-.04.38-.06-.04,0-.06,0-.1.01.73-.09,1.34-.23,1.88-.73.48-.44.83-1.16.8-1.79Z"/>
      </g>
    </g>
  </g>
  <g>
    <path class="cls-3" d="m499.83,1476.1l-1.02,62.76s30.07,4.7,41.24-2.69l6.24-66.87-46.45,6.81Z"/>
    <g>
      <path class="cls-15" d="m627.31,1602.76s8.58-23.42-29.25-35.83c-49.74-16.32-54.12-32.57-62.34-33.59-8.22-1.03-5.57,3.59-13.79,4.87-8.22,1.28-19.52-.22-21.91-3.29-2.39-3.08-6.63-2.05-8.09,3.2-1.46,5.26-2.76,36.5-3.03,49.44-.27,12.95,0,15.2,0,15.2h138.41Z"/>
      <path class="cls-3" d="m627.31,1602.76s1.28-3.51.67-8.53h-139.18c-.06,6.63.08,8.32.1,8.51,0,.01,0,.02,0,.02h138.41Z"/>
      <path class="cls-3" d="m504.79,1602.76h4.39c3.83-7.77,6.01-16.36,5.45-24.98-.62-9.48-4.7-18.67-11.84-25.28-2.79-2.58-8.4-4.99-11.9-6.5-.19,1.22-.13,2.8-.33,4.19,6.13,2.94,13.15,8.03,16.3,13.95,4.44,8.36,4.83,18.13,2.48,27.14-1.05,4-2.6,7.82-4.55,11.47Z"/>
      <g>
        <path class="cls-13" d="m568,1525.73c-1.82-3.65-6.29-6.02-10.39-4.59-4.48,1.56-6.53,5.78-7.01,10.09-.2,1.78-.21,3.6-.1,5.43-.86-.77-1.76-1.49-2.71-2.15-3.97-2.78-9.29-4.82-14.25-4.24-5.21.6-9.92,4.82-8.96,10.2.88,4.92,6.21,7.81,10.69,9.18,3.78,1.15,7.74,1.43,11.7,1.41-2.81,3.92-4.54,8.53-4.9,13.4-.1,1.37,1.28,2.54,2.62,2.54,1.5,0,2.52-1.16,2.62-2.54.11-1.54.38-2.94.93-4.65.13-.4.27-.79.42-1.19.08-.22.17-.43.26-.65.02-.04.03-.07.04-.09,0-.02.02-.04.03-.08.37-.81.78-1.6,1.24-2.36.9-1.5,1.7-2.56,2.82-3.75,1.25-1.32,2.45-2.32,3.83-3.22.16-.11.31-.23.45-.36.21-.06.41-.14.59-.26,6.63-4.55,14.18-13.89,10.07-22.12Zm-27.6,19.87c-3.41-.53-7.69-1.64-9.9-4.45-2.15-2.73.53-5.49,3.51-5.87,3.7-.47,7.65,1.29,10.63,3.27,2.82,1.87,5.05,4.42,6.64,7.33-3.62.17-7.3.28-10.87-.27Zm21.82-9.73c-1.42,2.53-3.36,4.77-5.65,6.6-.48-2.55-.76-5.12-.83-7.72-.07-2.73-.07-6.1,2.25-8.07,1.82-1.55,3.96-.93,5.16,1.02,1.56,2.53.43,5.76-.92,8.16Z"/>
        <path class="cls-13" d="m575.04,1554.66c-.21-.61-.6-1.21-1.21-1.52-.67-.34-1.28-.36-2.02-.26-4.62.66-9.04,3.05-12.09,6.47-.9,1-1.1,2.61,0,3.59.98.87,2.75,1.07,3.71,0,.67-.75,1.39-1.44,2.18-2.06.04-.03.08-.07.13-.11.02,0,.04-.02.1-.07.21-.15.43-.3.64-.44.44-.28.88-.55,1.34-.79.43-.23.88-.44,1.33-.64,0,0,0,0,.01,0,.08-.03.16-.06.25-.09.24-.09.49-.18.74-.26,1-.32,2.02-.55,3.05-.7.61-.09,1.27-.68,1.57-1.17.33-.54.47-1.34.26-1.95Z"/>
        <g>
          <path class="cls-13" d="m589.73,1561.71c-.48-1.44-1.77-1.98-3.23-1.77-4.94.72-9.66,3.26-12.94,6.9-.9,1-1.09,2.62,0,3.59.99.88,2.75,1.07,3.71,0,.72-.8,1.5-1.54,2.35-2.21,0,0,0,0,.01,0-.01,0-.02,0-.03.01.03,0,.07-.04.11-.07.02-.01.05-.04.07-.05.05-.04.09-.08.12-.1.23-.16.46-.32.69-.47.47-.3.95-.59,1.45-.85.47-.25.95-.47,1.43-.69.01,0,.01,0,.02-.01.1-.04.2-.08.3-.12.26-.1.53-.19.8-.28,1.07-.35,2.17-.6,3.29-.76,1.36-.2,2.23-1.92,1.83-3.12Z"/>
          <path class="cls-13" d="m579.64,1568.2c.15-.05.23-.14.15-.1-.02.02-.04.03-.07.05-.02.02-.04.03-.08.06Z"/>
        </g>
        <path class="cls-13" d="m605.67,1568.83c-.06-1.23-1.22-2.71-2.74-2.54-2.61.3-5.02.9-7.43,1.87-2.2.89-4.2,2.13-6.02,3.57-1.09.87-1.03,2.71,0,3.59,1.16.99,2.71.92,3.88,0,.2-.16.4-.31.59-.46,0,0,0,0,.02-.01.07-.05.13-.09.2-.14.42-.28.84-.55,1.28-.8.85-.49,1.73-.92,2.65-1.3.05-.02.07-.03.1-.04.02,0,.02,0,.04-.01.24-.08.48-.17.72-.25.49-.16.98-.31,1.47-.43.5-.13,1-.24,1.5-.34.25-.05.51-.09.76-.13.13-.02.25-.04.38-.06-.04,0-.06,0-.1.01.73-.09,1.34-.23,1.88-.73.48-.44.83-1.16.8-1.79Z"/>
      </g>
    </g>
  </g>
  <g>
    <path class="cls-6" d="m617.04,864.08c-41.6-16.55-88.03,8.33-97.41,52.11-7.83,36.56-10.19,80.69-12.61,115.47-2.75,39.41-4.28,87.43-5.85,123.93-1.43,33.23,19.63,58.35,52.74,61.49h0c32.32,3.07,52.23-11.29,58-43.24l42.07-233.43c5.51-33.5-5.4-63.78-36.95-76.33h0Z"/>
    <path class="cls-6" d="m565.87,1103.97h0c35.85,3.4,53.2,34.58,46.05,69.87l-54.82,357.41-72.71-6.9,15.38-365.75c3.16-33.34,32.76-57.8,66.1-54.64Z"/>
  </g>
  <g>
    <path class="cls-6" d="m700.5,858.4c-42.98-12.55-86.85,16.61-92.05,61.08-4.34,37.13-2.52,81.3-1.65,116.15.99,39.49,4,87.44,5.88,123.93,1.72,33.21,25.05,56.23,58.31,56.23h0c32.47,0,50.93-16.17,53.66-48.53l19.84-236.36c2.32-33.87-11.4-62.98-43.99-72.5h0Z"/>
    <path class="cls-6" d="m672.21,1102.05h0c36.01,0,56.23,29.4,52.44,65.21l-20.81,360.99h-73.03l-19.23-365.56c0-33.49,27.15-60.64,60.64-60.64Z"/>
  </g>
  <g>
    <g>
      <rect class="cls-1" x="1418.77" y="1195.39" width="283.17" height="21.05"/>
      <rect class="cls-15" x="1435.75" y="1216.45" width="249.22" height="390.47"/>
      <rect class="cls-10" x="1453.4" y="1230.71" width="213.91" height="116.12"/>
      <rect class="cls-10" x="1453.4" y="1346.83" width="213.91" height="116.12"/>
      <rect class="cls-10" x="1453.4" y="1462.95" width="213.91" height="116.12"/>
      <rect class="cls-8" x="1534.64" y="1244.29" width="51.44" height="9.17" rx="3.35" ry="3.35"/>
      <rect class="cls-13" x="1534.64" y="1361.09" width="51.44" height="9.17" rx="3.35" ry="3.35"/>
      <rect class="cls-13" x="1534.64" y="1482.56" width="51.44" height="9.17" rx="3.35" ry="3.35"/>
    </g>
    <polygon class="cls-3" points="1502.44 1077.02 1524.34 1195.39 1607.62 1195.39 1627.19 1077.02 1502.44 1077.02"/>
    <g>
      <path class="cls-15" d="m408.17,1155.36h1020.32c10.98,0,19.89,8.91,19.89,19.89v26.08H388.28v-26.08c0-10.98,8.91-19.89,19.89-19.89Z"/>
      <rect class="cls-2" x="382.77" y="1200.44" width="1075.88" height="43.49"/>
      <rect class="cls-2" x="433.2" y="1243.93" width="28.9" height="359.65"/>
      <rect class="cls-2" x="922.54" y="1243.93" width="28.9" height="359.65"/>
      <rect class="cls-2" x="1379.7" y="1243.93" width="28.9" height="359.65"/>
      <path class="cls-6" d="m1245.2,1155.36s-10.53-32.73,19.27-34.04c29.8-1.31,87.29,1.69,106.72-2.49,19.43-4.18,58.56-5.26,56.7,36.53h-182.68Z"/>
    </g>
    <rect class="cls-6" x="317.49" y="1603.45" width="1425.86" height="23.37"/>
    <g>
      <rect class="cls-7" x="1048.87" y="373.18" width="311.51" height="398.01"/>
      <path class="cls-4" d="m1276.09,561.28c-7.36,3.21-10.72-7.97-11.27-13.47-.42-4.23-23.14-34.76-32.93-48.71-1.47-2.09-4.73-1.15-4.87,1.39-.34,6.56-.99,16.87-2.24,29.54-2.2,22.36,1.1,59.74,1.1,59.74,0,0,11.27,117.06,12.83,125.34,1.65,8.75,10.84,11.18,25.29,16.49,8.98,3.3,8.52,3.39,7.7,4.58-1.11,1.6-4.14,1.65-6.73,1.65h-27.72c-6.23,0-11.36-.65-9.53-9.53.84-4.08,0-6.78,0-6.78-5.76-62.35-25.01-120.7-26.8-126.04-.09-.27-.13-.55-.13-.84v-179.05c7.33.27,17.04,3.1,17.04,19.7s-6.96,16.49-7.6,19.52c-.43,2.05-.36,7.17-.27,10.26.04,1.32,1.03,2.43,2.34,2.55,13.46,1.3,26.99,18.92,27.04,19.02l33.28,56.59s16.88,12.21,3.48,18.05Z"/>
      <path class="cls-5" d="m1193.26,454.72c-.08-2.34-4.86-2.11-5.04-10.72-.05-2.4-3.36-.67-3.94-5.59-.82-7.05,3.68-4.74,3.66-6.32-.09-12,6.34-16.25,12.83-16.49v179.05c0,.29-.04.56-.13.84-1.79,5.34-21.04,63.69-26.8,126.04,0,0-.84,2.7,0,6.78,1.83,8.88-3.3,9.53-9.53,9.53h-27.72c-2.59,0-5.63-.05-6.73-1.65-.82-1.19-1.28-1.28,7.7-4.58,14.45-5.31,23.64-7.74,25.29-16.49,1.56-8.28,12.83-125.34,12.83-125.34,0,0,3.3-37.38,1.1-59.74-1.25-12.67-1.9-22.98-2.24-29.54-.13-2.55-3.4-3.48-4.87-1.39-9.79,13.95-32.51,44.48-32.93,48.71-.55,5.5-3.91,16.68-11.27,13.47-13.4-5.84,3.48-18.05,3.48-18.05l33.28-56.59c.05-.1,13.59-17.72,27.04-19.02,0,0,4.45.38,3.99-12.9Z"/>
      <rect class="cls-4" x="1104.57" y="426.32" width="40.31" height="17.22"/>
      <rect class="cls-4" x="1269.49" y="426.32" width="40.31" height="17.22"/>
      <rect class="cls-5" x="1278.29" y="498.89" width="40.31" height="17.22"/>
      <rect class="cls-4" x="1077.74" y="580.8" width="40.31" height="17.22"/>
      <rect class="cls-5" x="1100.13" y="662.34" width="40.31" height="17.22"/>
      <rect class="cls-4" x="1265.79" y="600.04" width="40.31" height="17.22"/>
    </g>
  </g>
  <g>
    <path class="cls-16" d="m1219.89,1063.97l42.32-12.98s54.91-20.12,60.58,14.16c4.87,29.45-15.34,35.01-15.34,35.01l-72.08,19.83s-26.28-19.35-15.49-56.03Z"/>
    <path class="cls-17" d="m1320.33,1088.69c2.65-5.21,4.19-12.63,2.52-23.14-8.06-21.43-15.69-25.62-53.68-16.02-4.2,1.06-6.95,1.47-6.95,1.47l-15.71,4.82c3.87,7.07,13.04,22.51,26.28,33.01,8.86,7.03,21.02,10.87,34.67,11.34,4.91-2.89,9.64-6.66,12.88-11.48Z"/>
  </g>
  <g>
    <path class="cls-15" d="m696.22,576.3s-111.14-27.38-117.56,23.6c-13.95,110.72-58.86,312.72-68.96,347l235.16,29.36c4.79-51.42,11.14-101.1,26.51-140.74,9.78-25.24,18.05-51.04,24.17-77.4l24.99-107.57s4.15-10.31-60.34-48.42c0,0-16.85,19.91-39.78,11.47-34.72-12.78-24.19-37.3-24.19-37.3Z"/>
    <path class="cls-8" d="m698.61,672.74c20.49-9.71,55.03-45.21,59.98-68.15-4.54,4.64-20.03,18.29-39.24,11.29-34.76-12.67-23.11-39.57-23.11-39.57,0,0-17.3,38.95,2.38,96.44Z"/>
  </g>
  <path class="cls-16" d="m750.63,864.35l-153.32,62.91c-10.91,4.92-20.21,5.3-26.05-5.14h0c-6-10.72-.93-22.65,9.47-29.19l133.9-86.83s43.68-25.93,59.01,9.88c13.07,30.53-23,48.38-23,48.38Z"/>
  <g>
    <path class="cls-16" d="m769.62,987.53l-53.36-141.82c-6.99-18.13,2.34-38.46,20.65-44.97h0c15.99-5.7,33.76,1.07,41.91,15.97l77.93,136.36c6.39,11.69,8.89,25.19,6.63,38.32-2.16,12.55-8.69,26.02-25.54,32.57-33.98,13.22-47.07-2.63-68.2-36.43Z"/>
    <path class="cls-2" d="m917.51,1087.61l-61.54-149.72c-32.21,16.93-65.37,33.32-96.44,41.38l62.45,157.42s16.87,35,66.5,19.72c21.13-6.5,29.14-16.28,32.52-28.97,3.53-13.25,2.13-27.33-3.49-39.83Z"/>
  </g>
  <path class="cls-16" d="m585.54,888.24s-45.94,21.7-85.21,20.03c-39.27-1.67-52.24-10.62-52.24-10.62,0,0-4.16-2.28-8.25,1.23s-4.37,13.39,12.8,31.33c17.17,17.93,48.72,8.93,71.22,28.53,22.5,19.6,21.87,21.85,35.85,18.63,13.97-3.23,17.71-41.15,42.01-54.12,30.82-16.45,14.32-50.64-16.17-35Z"/>
  <g>
    <path class="cls-16" d="m722.05,1154.35l-151.52,1.01c-19.43.28-35.27-15.5-35.06-34.93h0c.19-16.98,12.68-31.3,29.48-33.8l154.9-25.94c13.18-1.96,26.71.38,38.25,7.04,11.03,6.37,21.41,17.15,21.73,35.23.65,36.45-18.76,43.25-57.78,51.39Z"/>
    <g>
      <path class="cls-2" d="m901.22,1046.58l-206.44,9.83c4.86,36.21,5.53,70.65,0,102.48h216.83s56.8,1.13,53.88-59.32c-3.16-65.31-64.27-52.99-64.27-52.99Z"/>
      <line class="cls-11" x1="787.06" y1="1051.03" x2="901.56" y2="1046.39"/>
    </g>
  </g>
  <path class="cls-16" d="m570.52,1155.36h-164.63c-11.97.23-21.74-5.6-23.01-17.51h0c-1.3-12.22,8.06-21.18,20.19-23.1l157.27-27.11s50.36-6.64,50.36,32.31c0,33.21-40.19,35.42-40.19,35.42Z"/>
  <path class="cls-16" d="m403.08,1114.75s-50.42,6.28-87.21-7.57c-36.79-13.85-46.31-26.4-46.31-26.4,0,0-3.25-3.46-8.22-1.41-4.98,2.06-8.33,11.36,2.38,33.76s43.49,23.7,58.75,49.34c15.26,25.64,13.96,27.59,28.24,28.89,14.28,1.3,29.54-34.41,56.8-38.3,27.27-3.9,30.73-39.6-4.44-38.3Z"/>
  <g>
    <path class="cls-1" d="m901.22,1044.64s2.6,52.58,10.39,114.26h329.13s28.56-12.98,22.72-48.69c-5.84-35.7-68.16-67.78-123.99-69.59-55.83-1.82-238.25,4.03-238.25,4.03Z"/>
    <path class="cls-16" d="m1081.91,1165.53l87.58-.37s44.88,7.57,43.05-36.62c-1.72-41.75-66.38-22.46-66.38-22.46l-68.69,10.38c-11.63,2.04-20.2,12.02-20.45,23.83,0,0-.66,25.35,24.89,25.24Z"/>
    <path class="cls-1" d="m1144.78,1098.82l12.29,74.83s112.4,6.99,107.23-56.32c-4.3-52.62-108.63-21.75-119.52-18.52Z"/>
    <path class="cls-12" d="m1144.78,1098.82s46.31-15.22,86.03-10.89"/>
  </g>
  <path class="cls-16" d="m1068,1118.17l-139.99,8.23c-9.47.49-16.93,8.24-17.07,17.72l.02-.94c-.14,9.85,7.65,18.93,17.5,19.19l153.46,3.15c19.32-.08,28.62-10.06,28.52-25.54-.1-15.51-9.74-26.27-42.43-21.81Z"/>
  <g>
    <path class="cls-2" d="m1413.05,1105.15c-23.37,14.85-93.48,31.05-129.81-14.21-49.3-61.43,130.08-96.89,129.81,14.21Z"/>
    <g>
      <path class="cls-16" d="m1332.42,1087.08s13.66,2.68,17.34,12.32c3.91,10.26-5.44,18.68-19.88,16.07-14.44-2.61-18.8-15.63-18.8-15.63,0,0-25.14-2.33-37.11-13.88-11.97-11.54-25.49-48.28-22.76-52.7,2.73-4.42,14.36-8.28,16.02-10.66,1.66-2.38.75-4.23,3.12-5.84,2.38-1.61,5.89.43,5.89.43.26-2.07.21-8.62,3.66-7.6,3.55,1.04,10.6.33,10.6.33-1.77-13.06,8.56-17.77,11.88-12.3,3.32,5.48,16.54,10.58,29.56-1.93,13.01-12.51,35.42-8.39,35.42-8.39,0,0,31.87,3.87,39.11,29.06,7.25,25.19,5.78,64.23-28.94,70.03-34.72,5.8-45.1.68-45.1.68Z"/>
      <ellipse class="cls-17" cx="1323.84" cy="1016.17" rx="5.78" ry="6.33" transform="translate(-336.06 843.32) rotate(-31.56)"/>
      <path class="cls-17" d="m1333.32,1002.09c.81-3.14,2.83-3.43,4.23-.97,2.5,4.37,7.16,14.26,6.79,19.3-.49,6.63-4.92,10.2-5.19,7.96-.27-2.24,1.74-7.96,0-11.61-1.74-3.65-6.34-11.21-6.03-13.6.04-.35.11-.72.21-1.08Z"/>
      <ellipse class="cls-18" cx="1321.74" cy="1013.41" rx="1.03" ry="1.18" transform="translate(-219.15 381.23) rotate(-15.17)"/>
      <path class="cls-9" d="m1276.09,1017.25s.71,9.18,8.33,13.35"/>
    </g>
    <path class="cls-2" d="m1410.45,969.33c-12.97,2.96-17.28,14.94-17.28,14.94-1.13-4.67,1.93-24.9,1.93-24.9-28.63-.45-29.6,22.68-29.6,22.68-2.32-.96-11.34-22.78-11.34-22.78-32.66,40.83,17.99,88.47,17.99,88.47-7.53.31-16.69-10.01-16.69-10.01,4.78,22.79,13.4,26.97,13.4,26.97-11.54,4.14-17.91,22.11-17.91,22.11l-22.83,1.1,1,4.13c12.77,1.44,14.84,6.03,14.84,6.03,6.15,8.59,2.13,15.56,2.13,15.56,0,0,59.2,17.96,81.86-26.75,22.67-44.71-17.5-117.56-17.5-117.56Z"/>
  </g>
  <g>
    <path class="cls-16" d="m938.33,1161.9s-18.59,5.75-38.86,4.11c0,0-9.2,3.4-15.63,10.65-6.43,7.25-13.71,2.19-14.6-2.19,0,0-5.73,7.21-12.61,2.83-6.88-4.38-.12-11.54-.12-11.54,0,0-4.5,4.77-10.25.47-5.75-4.31,4.44-16.53,4.44-16.53,0,0-17.26-3.27,25.13-29.69.8-.5,1.7-.87,2.63-1.05,3.86-.75,15.47-1.69,45.67,3.28,39.89,6.57,14.21,39.68,14.21,39.68Z"/>
    <path class="cls-2" d="m850.46,1149.85c7.03-9.41,16.89-16.4,28.14-19.84,1.53-.47,2.17,1.92.65,2.39-10.58,3.23-20.03,9.84-26.65,18.71-.94,1.26-3.09.02-2.13-1.25Z"/>
    <path class="cls-2" d="m855.9,1165.98c6.29-11.19,16.3-19.98,28.23-24.75,1.48-.59,2.32,1.73.85,2.32-11.3,4.52-20.88,12.88-26.85,23.5-.78,1.38-3.01.32-2.23-1.07Z"/>
    <path class="cls-2" d="m868.91,1172.25c6.1-10.08,15.14-18.23,25.84-23.19,1.43-.67,2.68,1.47,1.24,2.14-10.33,4.8-19.04,12.56-24.94,22.3-.82,1.36-2.96.11-2.13-1.25Z"/>
  </g>
  <path class="cls-3" d="m545.25,601.82l-139.63,123.18c-11.22,10.03-12.64,32.99,1.38,47.32,17.55,17.93,41.99,4.96,41.99,4.96l151.95-105.6c12.1-8.41,22.95-30.04,19.16-45.47-3.51-14.28-9.03-22.25-20.07-30.04-13.46-9.49-38.12-10.19-54.78,5.65Z"/>
  <g>
    <path class="cls-3" d="m480.04,889.05s17.8,24.68,20,31.16c2.2,6.48,15.85,16.29,31.32,5.79,15.48-10.5,7.92-24.34,7.92-24.34l-18.26-34.87-41,22.26Z"/>
    <path class="cls-3" d="m410.85,721.71c-18.77,9.31-22.78,34.68-10.44,51.62l91.45,132.9c5.91,8.58,17.07,11.77,26.62,7.59h0c11.2-4.9,16.15-18.08,10.95-29.15l-61.17-130.21s-22.21-50.2-57.42-32.75Z"/>
  </g>
  <g>
    <path class="cls-3" d="m500.04,920.2s-6.04,27.07,17.97,52.99c1.41,1.52,3.51,2.33,5.56,1.96,1.7-.31,3.47-1.4,4.26-4.33,0,0,2.67,5.72,9.22,5.89,6.54.17,8.18-5.03,8.18-5.03,0,0,2.19,8.13,10.52,7.82,8.34-.3,8.46-7.26,8.46-7.26,0,0,4.55,7.89,11.46,6.41,6.91-1.48,7.01-9.55-1.67-22.2-8.67-12.65-12.87-19.49-7.5-22.34,5.37-2.85,6.95,4.09,15.58,6.62,8.64,2.53,18.06,5.91,19.73,1.43,1.72-4.62-.9-6.05-11.73-11.32-10.88-5.3-16.97-17.81-29.95-23.51-12.97-5.7-26.18-6.18-26.18-6.18l-33.9,19.06Z"/>
    <path class="cls-2" d="m527.96,971.07c-.05-.2-.14-.39-.31-.54-.71-.62-1.37-1.29-1.98-2.01-.16-.18-.31-.37-.46-.56-.03-.04-.05-.06-.06-.07,0,0,0,0-.02-.03-.07-.09-.13-.18-.19-.27-.28-.39-.55-.79-.8-1.21-1.02-1.67-1.63-3.12-2.1-5.01-.17-.66-.93-1.12-1.59-.91-.68.22-1.09.89-.91,1.59,1,3.96,3.21,7.61,6.27,10.3.35.3.83.43,1.27.32.3-.52.56-1.13.75-1.86,0,0,.04.09.13.25Z"/>
    <g>
      <path class="cls-2" d="m545.05,971.52c-3.75-2.94-6.66-6.76-8.5-11.15-.27-.65-1.22-.79-1.77-.47-.67.39-.75,1.12-.47,1.77,1.91,4.56,5.01,8.63,8.9,11.68.26.2.56.33.86.35.73-.92,1.06-1.75,1.13-1.97-.05-.07-.08-.15-.15-.21Z"/>
      <path class="cls-2" d="m545.26,971.81c.02.08.06.2.12.34-.02-.12-.06-.23-.12-.34Z"/>
    </g>
    <path class="cls-2" d="m564.2,972.24s.03.05.08.13c-.06-.38-.26-.73-.6-.96-3.61-2.37-6.5-5.67-8.44-9.52-.31-.63-1.19-.81-1.77-.47-.64.37-.79,1.14-.47,1.77,2.13,4.25,5.4,7.86,9.37,10.46.55.36,1.32.14,1.7-.38.13-.62.14-1.03.14-1.03Z"/>
  </g>
  <g>
    <path class="cls-3" d="m709.18,534.93s-2.62,30.37-12.95,41.37c0,0-13.04,33.4,24.02,42.15,25.56,6.04,39.95-16.33,39.95-16.33,1.72-6.15-.22-9.08,11.81-40.13,12.37-31.93-7.95-46.95-16.39-50.44s-37.74-8.62-46.45,23.37Z"/>
    <path class="cls-2" d="m708.41,541.21c6.59,19.56,31.74,42.39,56.2,41.56,0,0,0,0,0,0,.09-.3.19-.61.29-.93.06-.18.12-.37.18-.56.09-.29.18-.57.28-.87h0c1.47-5.04,2.63-7.98,6.63-18.4,0,0,0-.01,0-.02,0,0,0-.01,0-.02.23-.6.44-1.19.64-1.78.08-.21.16-.43.23-.64.18-.53.35-1.05.51-1.57,0,0,0-.01,0-.02.07-.21.13-.43.2-.64,2.97-9.84,2.75-17.92.84-24.42-.37-1.25-.8-2.44-1.28-3.58-1.2-2.84-2.72-5.32-4.4-7.47-1-1.29-2.06-2.45-3.14-3.51-.45-.44-.9-.85-1.34-1.25,0,0,0,0-.01-.01,0,0,0,0-.01-.01-.41-.36-.83-.71-1.24-1.04-.07-.06-.14-.11-.21-.17-.37-.29-.74-.57-1.1-.84-.06-.05-.13-.1-.19-.14-.42-.3-.84-.59-1.25-.86-.4-.26-.79-.5-1.18-.73-.1-.06-.19-.11-.28-.16,0,0-.02-.01-.03-.02-.27-.16-.54-.31-.81-.45-.06-.03-.11-.06-.17-.09-.06-.03-.13-.07-.19-.1-.25-.13-.5-.25-.73-.37-.1-.05-.21-.1-.31-.15-.33-.15-.65-.3-.95-.42-.23-.09-.48-.19-.74-.29-7.62-2.78-33.39-4.22-44,18.51-.63,1.6-1.21,3.31-1.71,5.14,0,0-.22,2.48-.76,6.28h0Z"/>
  </g>
  <g>
    <path class="cls-3" d="m823.68,476.48s-3.29,94.82-47.62,105.08c-45.39,10.51-65.96-47.19-65.96-47.19,0,0-31.77-11.39-25.09-32.1,6.68-20.71,32.42-16.6,36.41,5.27l16.25-63.36s13.1-20.53,52.81-7.74c34.53,11.12,33.2,40.06,33.2,40.06Z"/>
    <path class="cls-2" d="m707.59,489.78s10.88,4.85,13.83,17.75c2.95,12.9,17.93-6.62,21.65-38.75,0,0-1.68-15.28,7.33-9.32,9.01,5.95,22.8,16.76,70.3,17.59,0,0,3.72.69,2.61,8.64,0,0,16.35-1.25,22.44-4.37,6.09-3.12,14.28-10.39,1.87-19.98-12.41-9.59-10.36-11.22-5.65-14.78,4.71-3.56,20.12-7.23,16-22.03-4.12-14.8-38.49-2.76-38.49-2.76,0,0,15.52-16.59.39-23.25s-23.54-1.24-32.1,4.89c0,0-38.94-11.54-60.92,8.55,0,0-8.04,6.81-11.89,12.43-3.85,5.62-8.28-10.17-11.18-9.07-2.9,1.1,2.29,15.35-2.46,14.32-4.75-1.02-14.74-6.28-18.9,6.61-4.16,12.89,7.89,9.41,6.06,17.45-1.83,8.05-9.87,19.71-2.28,45.54,0,0,5.78-14.24,21.4-9.47Z"/>
    <g>
      <path class="cls-2" d="m773.14,488.54c2.81-.89,3.47-3.07,1.31-4.85-3.84-3.16-14.7-6.49-17.55-6.78-3.74-.38-11.22,4.17-8.36,5.26,2.86,1.09,7.12-.83,10.62,1,3.5,1.84,8.76,5.22,12.9,5.56.61.05.74-.09,1.07-.2Z"/>
      <path class="cls-2" d="m797.19,493.58c-1.62-1.97-1.07-3.86,1.33-4.14,4.27-.5,13.72,2.16,15.93,3.29,2.9,1.48,6.18,8.3,3.59,7.75-2.59-.55-4.78-3.94-8.18-4.25-3.41-.3-8.81-.3-11.98-2-.47-.25-.49-.42-.68-.65Z"/>
      <path class="cls-12" d="m780.32,533.55c4.19-.34,13.88-5.57,7.21-9.81-6.66-4.24-6.9-9.62-3.48-16.21"/>
      <path class="cls-12" d="m779.38,552.23s-17.42,2.19-26.14-9.57"/>
      <g>
        <ellipse class="cls-2" cx="803.64" cy="510.67" rx="6.34" ry="6.95" transform="translate(210.87 1255.82) rotate(-83.93)"/>
        <ellipse class="cls-14" cx="805.48" cy="512.8" rx="1.24" ry="1.4" transform="translate(141.46 1198.98) rotate(-78.42)"/>
      </g>
      <g>
        <ellipse class="cls-2" cx="762.93" cy="500.41" rx="6.34" ry="6.95" transform="translate(184.66 1206.16) rotate(-83.93)"/>
        <ellipse class="cls-14" cx="764.77" cy="502.54" rx="1.24" ry="1.4" transform="translate(118.96 1150.89) rotate(-78.42)"/>
      </g>
    </g>
  </g>
  <path class="cls-15" d="m603.12,680.79l-66.91,49.39c-31.42-28.89-55.12-53.57-61.7-85.1l71.05-49.68s25.8-20.39,62.35-24.14c10.67-1.1,21.21,3.48,27.55,12.14,12.89,17.6,24.18,52.44-32.34,97.39Z"/>
  <g>
    <path class="cls-3" d="m800.42,885.5s2.84-21.15-13.2-32.82c-16.03-11.66-25.1-18.55-29.33-23.09-4.23-4.54-16.24.1-10.14,9.51,6.1,9.4,15.59,15,10.85,20.02-4.73,5.03-29.52,8.7-41.39,8.41-11.88-.29-13.89,7.81-10.13,11.11,0,0-7.72-1.46-8.51,5.27-.79,6.73,8.28,8.5,8.28,8.5,0,0-3.83.62-4.6,5.24-.78,4.62,8.03,8.14,8.03,8.14,0,0-4.66,3.34,1.53,8.32,6.2,4.98,31.01,14.04,60.91,3.75,29.9-10.29,27.7-32.36,27.7-32.36Z"/>
    <path class="cls-2" d="m749.02,879.75c-7.18.77-14.41.99-21.63.6-3.36-.18-6.73-.45-10.06-.92-3.21-.45-6.43-1.18-9.22-2.89-1.21-.73-2.55,1.02-1.34,1.76,5.81,3.54,13.17,3.83,19.79,4.21,7.58.44,15.2.23,22.75-.57,1.42-.15,1.12-2.34-.3-2.19Z"/>
    <path class="cls-2" d="m747.59,895.12c-13.54.67-27.1-.28-40.41-2.83-1.4-.27-1.81,1.91-.41,2.17,13.5,2.59,27.28,3.55,41.01,2.86,1.42-.07,1.24-2.27-.18-2.2Z"/>
    <path class="cls-2" d="m745.18,908.85c-11.24,1.94-22.86.84-33.5-3.3-1.32-.51-2.29,1.48-.96,1.99,11,4.27,23,5.52,34.64,3.51,1.39-.24,1.23-2.45-.18-2.2Z"/>
  </g>
  <path class="cls-3" d="m893.38,891.6c12.83-5.51,16.83-19.26,11.76-30.23l-74.25-183.67c-8.69-18.8-29.25-35.21-54.34-20.56,0,0-31.66,24.9-10.96,63.28,18.26,33.86,77.17,141.71,94.58,166.13,0,0,10.33,16.65,33.21,5.06"/>
  <path class="cls-3" d="m860.73,899.35l-61.54,6.24c-30.27,4.62-31.69-12.98-31.69-12.98-1.58-10.58,2.57-17.85,12.06-20.98l72.18-25.95s47.19-19.12,54.91,22.94c5.3,28.85-45.93,30.72-45.93,30.72Z"/>
  <path class="cls-15" d="m768.78,630.37s-71,15.88,32.31,163.56c0,0,47.16-19.83,69.11-38.37-9.43-30.57-42.92-148.56-101.41-125.19Z"/>
</svg>